<svg xmlns="http://www.w3.org/2000/svg" xmlns:xlink="http://www.w3.org/1999/xlink" xmlns:lucid="lucid" width="971.93" height="1914"><g transform="translate(-452.14655278534315 -66.99999999994924)" lucid:page-tab-id="0_0"><path d="M0 0h1760v2495.16H0z" fill="#fff"/><path d="M920 220c0 11.05-8.95 20-20 20s-20-8.95-20-20 8.95-20 20-20 20 8.95 20 20z" stroke="#666"/><path d="M900 241v32.62" stroke="#333" fill="none"/><path d="M899.98 240.5l.5-.02v.53h-.96v-.56z" stroke="#333" stroke-width=".05" fill="#333"/><path d="M900 288.38l-4.63-14.26h9.26z" stroke="#333" fill="#333"/><path d="M836 290c-8.84 0-16 7.16-16 16v48c0 8.84 7.16 16 16 16h128c8.84 0 16-7.16 16-16v-48c0-8.84-7.16-16-16-16z" stroke="#000" stroke-opacity="0" fill="#00b098"/><use xlink:href="#a" transform="matrix(1,0,0,1,828,298) translate(37.076562499999994 29.611979166666664)"/><use xlink:href="#b" transform="matrix(1,0,0,1,828,298) translate(42.497526041666674 49.61666666666666)"/><path d="M453.15 76a8 8 0 0 1 8-8h836.75a8 8 0 0 1 8 8v25.16a8 8 0 0 1-8 8H461.15a8 8 0 0 1-8-8z" stroke="#000" stroke-opacity="0" stroke-width="2" fill="#fff" fill-opacity="0"/><use xlink:href="#c" transform="matrix(1,0,0,1,457.14655278534315,71.99999999994924) translate(308.53251953125005 28.429583333333333)"/><path d="M725.65 107.8h317.57M725.68 107.8h-1.03M1043.2 107.8h1.02" stroke="#a9afb8" stroke-width="2" fill="none"/><path d="M453.15 117.16a8 8 0 0 1 8-8h837.7a8 8 0 0 1 8 8V120a8 8 0 0 1-8 8h-837.7a8 8 0 0 1-8-8z" stroke="#000" stroke-opacity="0" stroke-width="2" fill="#fff" fill-opacity="0"/><use xlink:href="#d" transform="matrix(1,0,0,1,457.1465527853436,113.15522395684805) translate(338.62625949435767 16.461006944444446)"/><use xlink:href="#e" transform="matrix(1,0,0,1,457.1465527853436,113.15522395684805) translate(416.8876532660591 16.461006944444446)"/><use xlink:href="#f" transform="matrix(1,0,0,1,457.1465527853436,113.15522395684805) translate(429.6198033311632 16.461006944444446)"/><use xlink:href="#g" transform="matrix(1,0,0,1,457.1465527853436,113.15522395684805) translate(462.2455037434896 16.461006944444446)"/><use xlink:href="#h" transform="matrix(1,0,0,1,457.1465527853436,113.15522395684805) translate(479.02026774088546 16.461006944444446)"/><path d="M836 400c-8.84 0-16 7.16-16 16v48c0 8.84 7.16 16 16 16h128c8.84 0 16-7.16 16-16v-48c0-8.84-7.16-16-16-16z" stroke="#000" stroke-opacity="0" fill="#00b098"/><use xlink:href="#i" transform="matrix(1,0,0,1,828,408) translate(40.16445312500001 29.611979166666664)"/><use xlink:href="#j" transform="matrix(1,0,0,1,828,408) translate(27.348697916666662 49.61666666666666)"/><path d="M900 370.5v13.12" stroke="#333" fill="none"/><path d="M900.48 370.5h-.96v-.5h.96z" stroke="#333" stroke-width=".05" fill="#333"/><path d="M900 398.38l-4.63-14.26h9.26z" stroke="#333" fill="#333"/><path d="M836 510c-8.84 0-16 7.16-16 16v48c0 8.84 7.16 16 16 16h128c8.84 0 16-7.16 16-16v-48c0-8.84-7.16-16-16-16z" stroke="#000" stroke-opacity="0" fill="#00b098"/><use xlink:href="#k" transform="matrix(1,0,0,1,828,518) translate(34.99778645833332 29.611979166666664)"/><use xlink:href="#l" transform="matrix(1,0,0,1,828,518) translate(50.372656250000006 49.61666666666666)"/><path d="M900 480.5v13.12" stroke="#333" fill="none"/><path d="M900.48 480.5h-.96v-.5h.96z" stroke="#333" stroke-width=".05" fill="#333"/><path d="M900 508.38l-4.63-14.26h9.26z" stroke="#333" fill="#333"/><path d="M836 840c-8.84 0-16 7.16-16 16v48c0 8.84 7.16 16 16 16h128c8.84 0 16-7.16 16-16v-48c0-8.84-7.16-16-16-16z" stroke="#000" stroke-opacity="0" fill="#00b098"/><use xlink:href="#k" transform="matrix(1,0,0,1,828,848) translate(34.99778645833332 29.611979166666664)"/><use xlink:href="#m" transform="matrix(1,0,0,1,828,848) translate(33.13294270833333 49.61666666666666)"/><path d="M900 590.5v10.43" stroke="#333" fill="none"/><path d="M900.48 590.5h-.96v-.5h.96z" stroke="#333" stroke-width=".05" fill="#333"/><path d="M900 615.7l-4.63-14.27h9.26z" stroke="#333" fill="#333"/><path d="M894.34 620.66a8 8 0 0 1 11.32 0l8.68 8.68a8 8 0 0 1 0 11.32l-8.68 8.68a8 8 0 0 1-11.32 0l-8.68-8.68a8 8 0 0 1 0-11.32zM894.34 965.66a8 8 0 0 1 11.32 0l8.68 8.68a8 8 0 0 1 0 11.32l-8.68 8.68a8 8 0 0 1-11.32 0l-8.68-8.68a8 8 0 0 1 0-11.32z" stroke="#000" stroke-width="2" fill="#fff"/><path d="M900 920.5v25.43" stroke="#333" fill="none"/><path d="M900.48 920.5h-.96v-.5h.96z" stroke="#333" stroke-width=".05" fill="#333"/><path d="M900 960.7l-4.63-14.27h9.26z" stroke="#333" fill="#333"/><path d="M836 1060c-8.84 0-16 7.16-16 16v48c0 8.84 7.16 16 16 16h128c8.84 0 16-7.16 16-16v-48c0-8.84-7.16-16-16-16z" stroke="#000" stroke-opacity="0" fill="#00b098"/><use xlink:href="#n" transform="matrix(1,0,0,1,828,1068) translate(26.638281250000002 39.614322916666666)"/><use xlink:href="#o" transform="matrix(1,0,0,1,828,1068) translate(65.63046875 39.614322916666666)"/><path d="M900.48 1043.62h-.96v-3.9h.96zm0-25.66h-.96V998.2h.96z" stroke="#333" stroke-width=".05" fill="#333"/><path d="M900 997.7l.48-.05v.55h-.96v-.55z" fill="#333"/><path stroke="#333" stroke-width=".05" fill="#333"/><path d="M900 1058.38l-4.63-14.26h9.26z" fill="#333"/><path d="M900 1059.92l-5.3-16.28h10.6zm-3.98-15.33l3.98 12.25 3.98-12.26z" stroke="#333" stroke-width=".05" fill="#333"/><use xlink:href="#p" transform="matrix(1,0,0,1,791.10791015625,1017.9550280915741) translate(0.0049999999999954525 17.4375)"/><use xlink:href="#q" transform="matrix(1,0,0,1,791.10791015625,1017.9550280915741) translate(46.877070312499995 17.4375)"/><use xlink:href="#r" transform="matrix(1,0,0,1,791.10791015625,1017.9550280915741) translate(81.2598828125 17.4375)"/><use xlink:href="#s" transform="matrix(1,0,0,1,791.10791015625,1017.9550280915741) translate(143.881953125 17.4375)"/><path d="M894.34 1165.66a8 8 0 0 1 11.32 0l8.68 8.68a8 8 0 0 1 0 11.32l-8.68 8.68a8 8 0 0 1-11.32 0l-8.68-8.68a8 8 0 0 1 0-11.32z" stroke="#000" stroke-width="2" fill="#fff"/><path d="M900 1140.5v5.43" stroke="#333" fill="none"/><path d="M900.48 1140.5h-.96v-.5h.96z" stroke="#333" stroke-width=".05" fill="#333"/><path d="M900 1160.7l-4.63-14.27h9.26z" stroke="#333" fill="#333"/><path d="M900.48 1245.93h-.96v-5.04h.96zm0-26.82h-.96v-20.9h.96z" stroke="#333" stroke-width=".05" fill="#333"/><path d="M900 1197.7l.48-.05v.55h-.96v-.55z" fill="#333"/><path stroke="#333" stroke-width=".05" fill="#333"/><path d="M900 1260.7l-4.63-14.27h9.26z" fill="#333"/><path d="M900 1262.23l-5.3-16.28h10.6zm-3.98-15.33l3.98 12.25 3.98-12.25z" stroke="#333" stroke-width=".05" fill="#333"/><use xlink:href="#t" transform="matrix(1,0,0,1,859.3154296875,1219.1103515625) translate(0.005000000000002558 17.4375)"/><use xlink:href="#u" transform="matrix(1,0,0,1,859.3154296875,1219.1103515625) translate(41.4981640625 17.4375)"/><path d="M1020.48 1168.02l-.16 1.93-.45 1.9-.75 1.8-1.03 1.68-1.28 1.5-1.5 1.26-1.66 1.02-1.8.75-1.9.45-1.94.15H918.2v-.94h89.78l1.82-.15 1.76-.42 1.67-.7 1.54-.94 1.38-1.17 1.17-1.38.95-1.54.7-1.67.4-1.76.15-1.82v-2.1h.96zm-10.53-68.34l1.9.45 1.8.75 1.68 1.03 1.5 1.28 1.26 1.5 1.02 1.66.75 1.8.45 1.9.15 1.94v32.13h-.95v-32.08l-.14-1.82-.42-1.76-.7-1.67-.94-1.54-1.17-1.38-1.38-1.17-1.54-.95-1.67-.7-1.76-.4-1.82-.16h-11.6v-.94h11.64z" stroke="#333" stroke-width=".05" fill="#333"/><path d="M918.2 1180.47h-.55l.04-.47-.05-.47h.55z" fill="#333"/><path stroke="#333" stroke-width=".05" fill="#333"/><path d="M995.88 1104.63l-14.26-4.63 14.26-4.63z" fill="#333"/><path d="M996.36 1105.3l-16.28-5.3 16.28-5.3zm-13.2-5.3l12.25 3.98v-7.96z" stroke="#333" stroke-width=".05" fill="#333"/><use xlink:href="#t" transform="matrix(1,0,0,1,971.9501953125,1144.1103515625) translate(0.005000000000002558 17.4375)"/><use xlink:href="#v" transform="matrix(1,0,0,1,971.9501953125,1144.1103515625) translate(41.4981640625 17.4375)"/><path d="M780.48 1847.98l.14 1.82.42 1.76.7 1.67.94 1.54 1.17 1.38 1.38 1.17 1.54.95 1.67.7 1.76.4 1.82.16h11.6v.94h-11.64l-1.93-.15-1.9-.45-1.8-.75-1.68-1.03-1.5-1.28-1.26-1.5-1.02-1.66-.75-1.8-.45-1.9-.15-1.94v-448.3h.95zm101.33-867.5h-89.78l-1.82.14-1.76.42-1.67.7-1.54.94-1.38 1.17-1.17 1.38-.95 1.54-.7 1.67-.4 1.76-.15 1.82v385.93h-.96V991.98l.16-1.93.45-1.9.75-1.8 1.03-1.68 1.28-1.5 1.5-1.26 1.66-1.02 1.8-.75 1.9-.45 1.94-.15h89.83z" stroke="#333" stroke-width=".05" fill="#333"/><path d="M882.3 980l.05.48h-.55v-.96h.55z" fill="#333"/><path stroke="#333" stroke-width=".05" fill="#333"/><path d="M818.38 1860l-14.26 4.63v-9.27z" fill="#333"/><path d="M819.92 1860l-16.28 5.3v-10.6zm-15.33 3.98l12.25-3.98-12.26-3.98z" stroke="#333" stroke-width=".05" fill="#333"/><use xlink:href="#w" transform="matrix(1,0,0,1,694.078125,1377.9550280915741) translate(0.0049999999999954525 17.4375)"/><use xlink:href="#x" transform="matrix(1,0,0,1,694.078125,1377.9550280915741) translate(36.699335937499995 17.4375)"/><use xlink:href="#s" transform="matrix(1,0,0,1,694.078125,1377.9550280915741) translate(97.9415234375 17.4375)"/><path d="M894.34 1265.66a8 8 0 0 1 11.32 0l8.68 8.68a8 8 0 0 1 0 11.32l-8.68 8.68a8 8 0 0 1-11.32 0l-8.68-8.68a8 8 0 0 1 0-11.32z" stroke="#000" stroke-width="2" fill="#fff"/><path d="M900.48 1363.62h-.96v-13.9h.96zm0-35.66h-.96v-29.77h.96z" stroke="#333" stroke-width=".05" fill="#333"/><path d="M900 1297.7l.48-.05v.55h-.96v-.55z" fill="#333"/><path stroke="#333" stroke-width=".05" fill="#333"/><path d="M900 1378.38l-4.63-14.26h9.26z" fill="#333"/><path d="M900 1379.92l-5.3-16.28h10.6zm-3.98-15.33l3.98 12.25 3.98-12.26z" stroke="#333" stroke-width=".05" fill="#333"/><use xlink:href="#t" transform="matrix(1,0,0,1,848.76416015625,1327.9550280915741) translate(0.005000000000002558 17.4375)"/><use xlink:href="#y" transform="matrix(1,0,0,1,848.76416015625,1327.9550280915741) translate(41.4981640625 17.4375)"/><use xlink:href="#z" transform="matrix(1,0,0,1,848.76416015625,1327.9550280915741) translate(66.6876171875 17.4375)"/><path d="M836 1380c-8.84 0-16 7.16-16 16v48c0 8.84 7.16 16 16 16h128c8.84 0 16-7.16 16-16v-48c0-8.84-7.16-16-16-16z" stroke="#000" stroke-opacity="0" fill="#00b098"/><use xlink:href="#A" transform="matrix(1,0,0,1,828,1388) translate(30.42333984375 25.480273437500003)"/><use xlink:href="#B" transform="matrix(1,0,0,1,828,1388) translate(71.27490234375 25.480273437500003)"/><use xlink:href="#C" transform="matrix(1,0,0,1,828,1388) translate(103.75048828125 25.480273437500003)"/><use xlink:href="#D" transform="matrix(1,0,0,1,828,1388) translate(43.6552734375 51.6154296875)"/><path d="M953.33 1280.47H918.2v-.94h35.13zm166.62-300.8l1.9.46 1.8.75 1.68 1.03 1.5 1.28 1.26 1.5 1.02 1.66.75 1.8.45 1.9.15 1.94v276.04l-.15 1.93-.45 1.9-.75 1.8-1.03 1.68-1.28 1.5-1.5 1.26-1.66 1.02-1.8.75-1.9.45-1.94.15h-15.35v-.94h15.3l1.83-.15 1.76-.42 1.67-.7 1.54-.94 1.38-1.17 1.17-1.38.95-1.54.7-1.67.4-1.76.16-1.82V992.02l-.15-1.82-.42-1.76-.7-1.67-.94-1.54-1.17-1.38-1.38-1.17-1.54-.95-1.67-.7-1.76-.4-1.82-.15h-183.9v-.96H1118z" stroke="#333" stroke-width=".05" fill="#333"/><path d="M918.2 1280.47h-.55l.04-.47-.05-.47h.55z" fill="#333"/><path stroke="#333" stroke-width=".05" fill="#333"/><path d="M933.57 984.63L919.3 980l14.27-4.63z" fill="#333"/><path d="M934.05 985.3l-16.28-5.3 16.28-5.3zm-13.2-5.3l12.25 3.98v-7.96z" stroke="#333" stroke-width=".05" fill="#333"/><use xlink:href="#t" transform="matrix(1,0,0,1,953.328125,1269.1103515625) translate(0.0049999999999954525 17.4375)"/><use xlink:href="#E" transform="matrix(1,0,0,1,953.328125,1269.1103515625) translate(41.498164062499995 17.4375)"/><use xlink:href="#y" transform="matrix(1,0,0,1,953.328125,1269.1103515625) translate(88.370234375 17.4375)"/><use xlink:href="#z" transform="matrix(1,0,0,1,953.328125,1269.1103515625) translate(113.5596875 17.4375)"/><path d="M836 1500c-8.84 0-16 7.16-16 16v48c0 8.84 7.16 16 16 16h128c8.84 0 16-7.16 16-16v-48c0-8.84-7.16-16-16-16z" stroke="#000" stroke-opacity="0" fill="#00b098"/><use xlink:href="#F" transform="matrix(1,0,0,1,828,1508) translate(-15.9873046875 25.480273437500003)"/><use xlink:href="#G" transform="matrix(1,0,0,1,828,1508) translate(44.1474609375 51.6154296875)"/><path d="M900 1460.5v23.12" stroke="#333" fill="none"/><path d="M900.48 1460.5h-.96v-.5h.96z" stroke="#333" stroke-width=".05" fill="#333"/><path d="M900 1498.38l-4.63-14.26h9.26z" stroke="#333" fill="#333"/><path d="M894.34 1625.66a8 8 0 0 1 11.32 0l8.68 8.68a8 8 0 0 1 0 11.32l-8.68 8.68a8 8 0 0 1-11.32 0l-8.68-8.68a8 8 0 0 1 0-11.32z" stroke="#000" stroke-width="2" fill="#fff"/><path d="M900 1580.5v25.43" stroke="#333" fill="none"/><path d="M900.48 1580.5h-.96v-.5h.96z" stroke="#333" stroke-width=".05" fill="#333"/><path d="M900 1620.7l-4.63-14.27h9.26z" stroke="#333" fill="#333"/><path d="M952.16 1640.47H918.2v-.94h33.96zm167.8-660.8l1.9.46 1.8.75 1.67 1.03 1.5 1.28 1.26 1.5 1.02 1.66.75 1.8.45 1.9.15 1.94v636.04l-.15 1.93-.45 1.9-.75 1.8-1.03 1.68-1.28 1.5-1.5 1.26-1.66 1.02-1.8.75-1.9.45-1.94.15h-30.18v-.94h30.14l1.82-.15 1.76-.42 1.67-.7 1.54-.94 1.38-1.17 1.17-1.38.95-1.54.7-1.67.4-1.76.16-1.82V992.02l-.15-1.82-.42-1.76-.7-1.67-.94-1.54-1.17-1.38-1.38-1.17-1.54-.95-1.67-.7-1.76-.4-1.82-.15h-183.9v-.96H1118z" stroke="#333" stroke-width=".05" fill="#333"/><path d="M918.2 1640.47h-.55l.04-.47-.05-.47h.55z" fill="#333"/><path stroke="#333" stroke-width=".05" fill="#333"/><path d="M933.57 984.63L919.3 980l14.27-4.63z" fill="#333"/><path d="M934.05 985.3l-16.28-5.3 16.28-5.3zm-13.2-5.3l12.25 3.98v-7.96z" stroke="#333" stroke-width=".05" fill="#333"/><use xlink:href="#p" transform="matrix(1,0,0,1,952.16162109375,1629.1103515625) translate(0.0049999999999954525 17.4375)"/><use xlink:href="#H" transform="matrix(1,0,0,1,952.16162109375,1629.1103515625) translate(46.877070312499995 17.4375)"/><path d="M920 1960c0 11.05-8.95 20-20 20s-20-8.95-20-20 8.95-20 20-20 20 8.95 20 20z" stroke="#000" stroke-width="2"/><path d="M900.48 1667.95h-.96v-9.76h.96z" stroke="#333" stroke-width=".05" fill="#333"/><path d="M900 1657.7l.48-.05v.55h-.96v-.55z" fill="#333"/><path stroke="#333" stroke-width=".05" fill="#333"/><path d="M900 1698.38l-2.8-8.65h5.6z" fill="#333"/><path d="M900 1699.92l-3.3-10.2h1l2.3 7.13 2.3-7.12h1z" stroke="#333" stroke-width=".05" fill="#333"/><use xlink:href="#I" transform="matrix(1,0,0,1,854.40234375,1667.9550280915741) translate(0.005000000000002558 17.4375)"/><path d="M836 1700c-8.84 0-16 7.16-16 16v48c0 8.84 7.16 16 16 16h128c8.84 0 16-7.16 16-16v-48c0-8.84-7.16-16-16-16z" stroke="#000" stroke-opacity="0" fill="#00b098"/><use xlink:href="#J" transform="matrix(1,0,0,1,828,1708) translate(40.4384765625 25.480273437500003)"/><use xlink:href="#K" transform="matrix(1,0,0,1,828,1708) translate(16.34765625 51.6154296875)"/><path d="M900 1780.5v23.12" stroke="#333" fill="none"/><path d="M900.48 1780.5h-.96v-.5h.96z" stroke="#333" stroke-width=".05" fill="#333"/><path d="M900 1818.38l-4.63-14.26h9.26z" stroke="#333" fill="#333"/><path d="M836 1820c-8.84 0-16 7.16-16 16v48c0 8.84 7.16 16 16 16h128c8.84 0 16-7.16 16-16v-48c0-8.84-7.16-16-16-16z" stroke="#000" stroke-opacity="0" fill="#00b098"/><use xlink:href="#L" transform="matrix(1,0,0,1,828,1828) translate(51.1083984375 27.658203125)"/><use xlink:href="#M" transform="matrix(1,0,0,1,828,1828) translate(14.572265625 49.4375)"/><path d="M900 1900.5v22.12" stroke="#333" fill="none"/><path d="M900.48 1900.5h-.96v-.5h.96z" stroke="#333" stroke-width=".05" fill="#333"/><path d="M900 1937.38l-4.63-14.27 9.26.02z" stroke="#333" fill="#333"/><path d="M918.2 635h225.42" stroke="#333" fill="none"/><path d="M918.2 635.48h-.55l.04-.48-.05-.48h.55z" stroke="#333" stroke-width=".05" fill="#333"/><path d="M1158.38 635l-14.26 4.63v-9.26z" stroke="#333" fill="#333"/><g><use xlink:href="#p" transform="matrix(1,0,0,1,942.3012194978241,609.220703125) translate(0.0049999999999954525 17.4375)"/><use xlink:href="#q" transform="matrix(1,0,0,1,942.3012194978241,609.220703125) translate(46.877070312499995 17.4375)"/><use xlink:href="#N" transform="matrix(1,0,0,1,942.3012194978241,609.220703125) translate(81.2598828125 17.4375)"/><use xlink:href="#O" transform="matrix(1,0,0,1,942.3012194978241,609.220703125) translate(139.381953125 17.4375)"/></g><path d="M1176 595c-8.84 0-16 7.16-16 16v48c0 8.84 7.16 16 16 16h128c8.84 0 16-7.16 16-16v-48c0-8.84-7.16-16-16-16z" stroke="#000" stroke-opacity="0" fill="#00b098"/><g><use xlink:href="#P" transform="matrix(1,0,0,1,1168,603) translate(17.33642578125 38.5478515625)"/><use xlink:href="#z" transform="matrix(1,0,0,1,1168,603) translate(90.87451171875 38.5478515625)"/></g><path d="M1234.34 725.66a8 8 0 0 1 11.32 0l8.68 8.68a8 8 0 0 1 0 11.32l-8.68 8.68a8 8 0 0 1-11.32 0l-8.68-8.68a8 8 0 0 1 0-11.32z" stroke="#000" stroke-width="2" fill="#fff"/><path d="M1240 675.5v30.43" stroke="#333" fill="none"/><path d="M1240.47 675.5h-.94v-.5h.94z" stroke="#333" stroke-width=".05" fill="#333"/><path d="M1240 720.7l-4.63-14.27h9.27z" stroke="#333" fill="#333"/><path d="M1360.32 729.95l-.45 1.9-.75 1.8-1.03 1.68-1.28 1.5-1.5 1.26-1.66 1.02-1.8.75-1.9.45-1.94.15h-89.83v-.95h89.78l1.82-.14 1.76-.42 1.67-.7 1.54-.94 1.38-1.17 1.17-1.38.95-1.54.7-1.67.4-1.76.03-.25h.95zm-10.37-95.27l1.9.45 1.8.75 1.68 1.03 1.5 1.28 1.26 1.5 1.02 1.66.75 1.8.45 1.9.15 1.94v60.8h-.94V647l-.15-1.82-.42-1.76-.7-1.67-.94-1.54-1.17-1.38-1.38-1.17-1.54-.95-1.67-.7-1.76-.4-1.82-.15h-11.6v-.96h11.64z" stroke="#333" stroke-width=".05" fill="#333"/><path d="M1258.2 740.48h-.55l.04-.48-.05-.48h.55z" fill="#333"/><path stroke="#333" stroke-width=".05" fill="#333"/><path d="M1335.88 639.63l-14.26-4.63 14.26-4.63z" fill="#333"/><path d="M1336.36 640.3l-16.28-5.3 16.28-5.3zm-13.2-5.3l12.25 3.98v-7.96z" stroke="#333" stroke-width=".05" fill="#333"/><g><use xlink:href="#P" transform="matrix(1,0,0,1,1295.927734375,707.7656750334259) translate(0.0049999999999954525 17.4375)"/><use xlink:href="#v" transform="matrix(1,0,0,1,1295.927734375,707.7656750334259) translate(73.5430859375 17.4375)"/></g><path d="M900.48 727.98l.14 1.82.42 1.76.7 1.67.94 1.54 1.17 1.38 1.38 1.17 1.54.95 1.67.7 1.76.4 1.82.15h48.77v.96h-48.82l-1.93-.16-1.9-.45-1.8-.75-1.68-1.03-1.5-1.28-1.26-1.5-1.02-1.66-.75-1.8-.45-1.9-.15-1.94v-58.95h.95zm321.33 11.54v.96h-147.6v-.96z" stroke="#333" stroke-width=".05" fill="#333"/><path d="M1222.3 740l.05.48h-.55v-.96h.55z" fill="#333"/><path stroke="#333" stroke-width=".05" fill="#333"/><path d="M904.63 668.57h-9.26L900 654.3z" fill="#333"/><path d="M905.3 669.05h-10.6l5.3-16.28zm-9.28-.95h7.96L900 655.85z" stroke="#333" stroke-width=".05" fill="#333"/><g><use xlink:href="#P" transform="matrix(1,0,0,1,960.79296875,729.1103515625) translate(0.005000000000002558 17.4375)"/><use xlink:href="#u" transform="matrix(1,0,0,1,960.79296875,729.1103515625) translate(73.5430859375 17.4375)"/></g><path d="M842.8 787.98l.13 1.82.42 1.76.7 1.67.94 1.54 1.16 1.38 1.38 1.17 1.54.95 1.67.7 1.76.4 1.83.15h33.7l1.92.16 1.9.45 1.8.75 1.68 1.03 1.5 1.28 1.26 1.5 1.02 1.66.75 1.8.45 1.9.15 1.94v11.64h-.95v-11.6l-.14-1.82-.42-1.76-.7-1.67-.94-1.54-1.17-1.38-1.38-1.17-1.54-.95-1.67-.7-1.76-.4-1.82-.15h-33.7l-1.92-.16-1.9-.45-1.8-.75-1.68-1.03-1.5-1.28-1.26-1.5-1.03-1.66-.75-1.8-.46-1.9-.16-1.94v-10.88h.95zm39-152.5h-27.47l-1.82.14-1.75.42-1.67.7-1.54.94-1.38 1.17-1.17 1.38-.96 1.54-.7 1.67-.4 1.76-.15 1.82v108.34h-.96V646.98l.15-1.93.45-1.9.74-1.8 1.02-1.68 1.27-1.5 1.48-1.26 1.67-1.02 1.8-.75 1.9-.45 1.94-.15h27.5z" stroke="#333" stroke-width=".05" fill="#333"/><path d="M882.3 635l.05.48h-.55v-.96h.55z" fill="#333"/><path stroke="#333" stroke-width=".05" fill="#333"/><path d="M900 838.38l-4.63-14.26h9.26z" fill="#333"/><path d="M900 839.92l-5.3-16.28h10.6zm-3.98-15.33l3.98 12.25 3.98-12.26z" stroke="#333" stroke-width=".05" fill="#333"/><g><use xlink:href="#w" transform="matrix(1,0,0,1,768.0474633481018,755.3563305185171) translate(0.0049999999999954525 17.4375)"/><use xlink:href="#N" transform="matrix(1,0,0,1,768.0474633481018,755.3563305185171) translate(36.699335937499995 17.4375)"/><use xlink:href="#O" transform="matrix(1,0,0,1,768.0474633481018,755.3563305185171) translate(94.82140625 17.4375)"/></g><defs><path fill="#fff" d="M-41 0l788-1490h220L1268 0h-192l-80-416H383L169 0H-41zm509-582h497c-56-293-77-375-126-756-162 359-224 468-371 756" id="Q"/><path fill="#fff" d="M443 14C219 14 87-123 134-408l117-710h180L317-423c-28 171 49 275 206 275s300-105 332-300l110-670h181L961 0H787l35-209C722-47 590 14 443 14" id="R"/><path fill="#fff" d="M451 24C217 22 71-78 61-277l174-29c11 123 90 172 219 172 161 0 280-83 297-181 11-71-30-117-135-143l-179-44c-195-48-280-153-253-316 31-186 223-314 455-314 233 4 337 107 366 275l-165 30c-18-80-65-152-204-152-138 0-256 75-272 174-13 77 32 118 158 149l162 40c195 48 278 154 252 313C904-113 708 24 451 24" id="S"/><path fill="#fff" d="M456 442C197 442 73 327 25 209l155-84c33 60 86 160 280 160 184 0 332-89 363-272l37-218-16 4C793-134 707-18 498-18 260-18 96-170 96-443c0-341 216-689 568-689 222 0 274 139 301 198l21-5 30-179h175L999 35c-48 288-275 407-543 407zm75-620c274 0 401-267 401-512 0-170-80-281-247-281-260 0-408 269-408 518 0 167 83 275 254 275" id="T"/><path fill="#fff" d="M481 24C202 24 45-202 104-557s293-575 571-575c216 0 263 132 291 193h15l29-179h181L1006 0H831l28-173h-21C788-107 693 24 481 24zm56-161c204 0 342-174 383-422s-41-412-245-412c-215 0-350 183-388 412-39 235 39 422 250 422" id="U"/><path fill="#fff" d="M592 24c-216 0-276-130-305-197h-18L239 0H65l247-1490h180l-92 551h15c51-63 134-193 344-193 246 0 401 170 401 447 0 348-211 709-568 709zm-24-161c267 0 411-296 411-543 0-170-78-291-250-291-269 0-405 284-405 542 0 177 81 292 244 292" id="V"/><path fill="#fff" d="M535 24C259 24 94-144 94-427c0-392 272-715 610-715 216 0 356 119 356 305 0 244-237 344-790 350-18 199 49 349 276 352 142 0 260-66 317-173l167 47C947-85 756 24 535 24zM294-623c447-4 586-57 586-218 0-85-78-141-194-141-220 0-342 177-392 359" id="W"/><g id="a"><use transform="matrix(0.008072916666666667,0,0,0.008072916666666667,0,0)" xlink:href="#Q"/><use transform="matrix(0.008072916666666667,0,0,0.008072916666666667,11.407031250000001,0)" xlink:href="#R"/><use transform="matrix(0.008072916666666667,0,0,0.008072916666666667,21.19140625,0)" xlink:href="#S"/><use transform="matrix(0.008072916666666667,0,0,0.008072916666666667,29.91015625,0)" xlink:href="#T"/><use transform="matrix(0.008072916666666667,0,0,0.008072916666666667,40.049739583333334,0)" xlink:href="#U"/><use transform="matrix(0.008072916666666667,0,0,0.008072916666666667,50.19739583333333,0)" xlink:href="#V"/><use transform="matrix(0.008072916666666667,0,0,0.008072916666666667,60.32890625,0)" xlink:href="#W"/></g><path fill="#fff" d="M524-1490L277 0H87l247-1490h190" id="X"/><path fill="#fff" d="M356-664L245 0H65l186-1118h173l-32 197c96-152 219-211 366-211 232 0 366 145 319 428L960 0H779l117-701c29-174-48-269-198-269-165 0-310 115-342 306" id="Y"/><path fill="#fff" d="M780-1118l-24 146H497L317 116C281 334 148 448-56 448c-43 0-82-5-117-17l45-161c143 34 239 0 264-153L316-972H89l24-146h227l13-77c43-287 254-417 541-345l-50 154c-23-5-81-8-121-8-107 0-167 63-189 196l-13 80h259" id="Z"/><path fill="#fff" d="M528 24C258 24 94-156 94-433c0-355 229-699 603-699 270 0 436 178 436 458 0 359-234 698-605 698zm4-161c275 0 420-287 420-533 0-170-77-301-260-301-271 0-418 288-418 536 0 168 77 298 258 298" id="aa"/><path fill="#fff" d="M691-1118l-25 154H437L325-290c-17 103 16 144 108 144 23 0 63-6 94-12L538-6c-36 12-87 20-136 20-196 0-290-109-260-290l114-688H88l25-154h169l44-266h180l-44 266h229" id="ab"/><path fill="#fff" d="M-28 0l489-573-281-545h202c65 135 144 295 195 434 91-140 226-300 336-434h214L662-564 960 0H756c-70-143-156-309-211-458C447-309 301-142 185 0H-28" id="ac"/><g id="b"><use transform="matrix(0.008072916666666667,0,0,0.008072916666666667,0,0)" xlink:href="#X"/><use transform="matrix(0.008072916666666667,0,0,0.008072916666666667,4.440104166666667,0)" xlink:href="#Y"/><use transform="matrix(0.008072916666666667,0,0,0.008072916666666667,14.216406250000002,0)" xlink:href="#Z"/><use transform="matrix(0.008072916666666667,0,0,0.008072916666666667,19.899739583333336,0)" xlink:href="#aa"/><use transform="matrix(0.008072916666666667,0,0,0.008072916666666667,29.82135416666667,0)" xlink:href="#ab"/><use transform="matrix(0.008072916666666667,0,0,0.008072916666666667,35.084895833333334,0)" xlink:href="#W"/><use transform="matrix(0.008072916666666667,0,0,0.008072916666666667,44.231510416666666,0)" xlink:href="#ac"/><use transform="matrix(0.008072916666666667,0,0,0.008072916666666667,53.57994791666667,0)" xlink:href="#ab"/></g><path fill="#a9afb8" d="M49 0l509-1490h400L1480 0h-339l-115-346H497L386 0H49zm524-585h374c-75-213-124-402-192-666-66 268-110 453-182 666" id="ad"/><path fill="#a9afb8" d="M128 0v-1490h300v802h17l366-430h347L740-633 1179 0H826L514-456l-86 97V0H128" id="ae"/><path fill="#a9afb8" d="M683-1118v229H474v562c0 71 29 104 102 104 23 0 73-7 95-13l43 225C647 9 580 16 520 16 296 16 174-96 174-301v-588H20v-229h154v-266h300v266h209" id="af"/><path fill="#a9afb8" d="M128 0v-1118h300V0H128zm150-1264c-91 0-165-68-165-154 0-85 74-154 165-154 90 0 165 69 165 154 0 86-75 154-165 154" id="ag"/><path fill="#a9afb8" d="M443 0L31-1118h319c90 293 199 572 268 885 66-313 175-593 264-885h315L784 0H443" id="ah"/><path fill="#a9afb8" d="M440 22C227 22 68-92 68-313c0-250 202-322 422-343 195-21 271-24 271-105 0-95-63-149-175-149-116 0-187 57-211 129l-275-46c57-194 237-305 487-305 240 0 474 108 474 379V0H777v-155h-10C713-51 605 22 440 22zm85-211c140 0 238-93 238-211v-121c-37 26-156 42-222 51-111 16-185 59-185 149 0 87 70 132 169 132zM368-1272c-83 0-150-66-150-146s67-145 150-145c82 0 149 65 149 145s-67 146-149 146zm443 0c-83 0-150-66-150-146s67-145 150-145c82 0 149 65 149 145s-67 146-149 146" id="ai"/><path fill="#a9afb8" d="M572 22C302 22 117-98 78-306l279-48c29 105 101 156 224 156 114 0 185-48 185-115 0-118-228-130-337-155-215-49-322-150-322-317 0-215 187-347 470-347 265 0 424 116 466 298l-266 47c-24-76-87-130-196-130-98 0-174 46-174 113 0 56 38 95 144 117l201 40c216 44 320 143 320 302 0 220-207 367-500 367" id="aj"/><path fill="#a9afb8" d="M537 19C279 19 81-185 81-557c0-382 206-575 454-575 190 0 278 113 318 202h10v-560h300V0H868v-179h-15C812-89 719 19 537 19zm92-241c153 0 240-134 240-336 0-203-86-334-240-334-158 0-240 138-240 334 0 197 84 336 240 336" id="ak"/><path fill="#a9afb8" d="M440 22C227 22 68-92 68-313c0-250 202-322 422-343 195-21 271-24 271-105 0-95-63-149-175-149-116 0-187 57-211 129l-275-46c57-194 237-305 487-305 240 0 474 108 474 379V0H777v-155h-10C713-51 605 22 440 22zm85-211c140 0 238-93 238-211v-121c-37 26-156 42-222 51-111 16-185 59-185 149 0 87 70 132 169 132" id="al"/><path fill="#a9afb8" d="M625 442c-280 0-454-114-503-274l258-72c28 63 97 128 243 128 153 0 246-69 246-216v-206h-23C805-108 717-16 536-16 284-16 81-191 81-561c0-378 208-571 456-571 188 0 280 113 321 202h13v-188h295V-9c0 303-226 451-541 451zm5-686c153 0 240-119 240-319 0-198-86-329-240-329-158 0-241 137-241 329 0 195 85 319 241 319" id="am"/><path fill="#a9afb8" d="M128 0v-1118h290v195h12c54-169 184-238 367-200v268c-27-8-86-15-130-15-138 0-239 95-239 234V0H128" id="an"/><path fill="#a9afb8" d="M128 0v-1118h278l12 217c60-163 185-234 319-234 143 0 236 81 288 251 63-172 205-251 359-251 205 0 357 138 357 381V0h-301v-697c0-126-76-187-177-187-114 0-184 79-184 196V0H789v-705c0-109-72-179-174-179-106 0-187 74-187 208V0H128" id="ao"/><g id="c"><use transform="matrix(0.011907552083333333,0,0,0.011907552083333333,0,0)" xlink:href="#ad"/><use transform="matrix(0.011907552083333333,0,0,0.011907552083333333,18.206647135416667,0)" xlink:href="#ae"/><use transform="matrix(0.011907552083333333,0,0,0.011907552083333333,32.35281901041667,0)" xlink:href="#af"/><use transform="matrix(0.011907552083333333,0,0,0.011907552083333333,41.28348307291667,0)" xlink:href="#ag"/><use transform="matrix(0.011907552083333333,0,0,0.011907552083333333,47.89217447916667,0)" xlink:href="#ah"/><use transform="matrix(0.011907552083333333,0,0,0.011907552083333333,62.5146484375,0)" xlink:href="#ag"/><use transform="matrix(0.011907552083333333,0,0,0.011907552083333333,69.12333984375,0)" xlink:href="#af"/><use transform="matrix(0.011907552083333333,0,0,0.011907552083333333,78.17307942708334,0)" xlink:href="#ai"/><use transform="matrix(0.011907552083333333,0,0,0.011907552083333333,92.33115885416667,0)" xlink:href="#af"/><use transform="matrix(0.011907552083333333,0,0,0.011907552083333333,101.0832096354167,0)" xlink:href="#aj"/><use transform="matrix(0.011907552083333333,0,0,0.011907552083333333,114.74117187500002,0)" xlink:href="#ak"/><use transform="matrix(0.011907552083333333,0,0,0.011907552083333333,130.11382161458334,0)" xlink:href="#ag"/><use transform="matrix(0.011907552083333333,0,0,0.011907552083333333,136.72251302083333,0)" xlink:href="#al"/><use transform="matrix(0.011907552083333333,0,0,0.011907552083333333,150.88059244791665,0)" xlink:href="#am"/><use transform="matrix(0.011907552083333333,0,0,0.011907552083333333,166.28896484375,0)" xlink:href="#an"/><use transform="matrix(0.011907552083333333,0,0,0.011907552083333333,175.88645182291665,0)" xlink:href="#al"/><use transform="matrix(0.011907552083333333,0,0,0.011907552083333333,190.04453124999998,0)" xlink:href="#ao"/><use transform="matrix(0.011907552083333333,0,0,0.011907552083333333,212.29974609374995,0)" xlink:href="#ao"/></g><path fill="#a9afb8" d="M657 26c-323 0-524-166-541-416h195c15 169 171 246 346 246 202 0 356-106 356-265 5-203-294-238-475-293-239-73-380-191-380-389 0-252 224-419 512-419 294 0 499 171 508 396H992c-17-145-151-228-328-228-193 0-321 102-321 242 0 156 175 211 284 241l149 41c160 44 422 134 422 412 0 244-197 432-541 432" id="ap"/><path fill="#a9afb8" d="M628 24c-324 0-524-230-524-574 0-343 198-582 503-582 237 0 487 146 487 559v75H286c9 234 145 362 343 362 132 0 231-58 273-172l174 48C1024-91 857 24 628 24zM287-650h624c-17-190-120-322-304-322-192 0-309 151-320 322" id="aq"/><path fill="#a9afb8" d="M677 24c-213 0-288-135-325-197h-20V0H158v-1490h180v551h14c37-59 106-193 324-193 279 0 474 222 474 576 0 356-194 580-473 580zm-27-161c209 0 317-186 317-421 0-232-105-413-317-413-206 0-314 166-314 413 0 249 111 421 314 421" id="ar"/><path fill="#a9afb8" d="M471 26C259 26 90-98 90-318c0-256 228-303 435-329 202-27 287-16 287-108 0-139-79-219-234-219-161 0-248 86-283 164l-173-57c86-203 278-265 451-265 150 0 419 46 419 395V0H815v-152h-12C765-73 660 26 471 26zm31-159c199 0 310-134 310-271v-155c-30 35-226 55-295 64-131 17-246 59-246 186 0 116 97 176 231 176" id="as"/><path fill="#a9afb8" d="M538 24C308 24 148-78 108-271l171-41c32 123 123 178 257 178 156 0 256-77 256-169 0-77-54-128-164-154l-186-44c-203-48-300-148-300-305 0-192 176-326 414-326 230 0 351 112 402 269l-163 42c-31-80-94-158-238-158-133 0-233 69-233 162 0 83 57 129 188 160l169 40c203 48 298 149 298 302 0 196-179 339-441 339" id="at"/><path fill="#a9afb8" d="M598-1118v154H368v674c0 100 37 144 132 144 23 0 62-6 92-12L629-6c-37 13-88 20-134 20-193 0-307-107-307-290v-688H20v-154h168v-266h180v266h230" id="au"/><path fill="#a9afb8" d="M158 0v-1118h180V0H158zm91-1301c-68 0-125-53-125-119s57-119 125-119c69 0 126 53 126 119s-57 119-126 119" id="av"/><path fill="#a9afb8" d="M338-670V0H158v-1118h173l1 207c72-158 192-221 342-221 226 0 378 139 378 422V0H872v-695c0-172-96-275-252-275-161 0-282 109-282 300" id="aw"/><g id="d"><use transform="matrix(0.006946072048611111,0,0,0.006946072048611111,0,0)" xlink:href="#ap"/><use transform="matrix(0.006946072048611111,0,0,0.006946072048611111,9.127138671875,0)" xlink:href="#aq"/><use transform="matrix(0.006946072048611111,0,0,0.006946072048611111,17.420748697916665,0)" xlink:href="#ar"/><use transform="matrix(0.006946072048611111,0,0,0.006946072048611111,26.27004448784722,0)" xlink:href="#as"/><use transform="matrix(0.006946072048611111,0,0,0.006946072048611111,34.258027343749994,0)" xlink:href="#at"/><use transform="matrix(0.006946072048611111,0,0,0.006946072048611111,41.7667312282986,0)" xlink:href="#au"/><use transform="matrix(0.006946072048611111,0,0,0.006946072048611111,46.42059950086805,0)" xlink:href="#av"/><use transform="matrix(0.006946072048611111,0,0,0.006946072048611111,49.86585123697916,0)" xlink:href="#as"/><use transform="matrix(0.006946072048611111,0,0,0.006946072048611111,57.85383409288195,0)" xlink:href="#aw"/></g><path fill="#a9afb8" d="M419-1970V480H262v-2450h157" id="ax"/><use transform="matrix(0.006946072048611111,0,0,0.006946072048611111,0,0)" xlink:href="#ax" id="e"/><path fill="#a9afb8" d="M180 0v-1490h270l367 940c28 72 75 218 110 339 35-117 81-264 110-339l362-940h271V0h-187c2-448-5-837 7-1287-157 497-311 829-483 1287H842C666-458 514-784 354-1284c12 438 5 843 7 1284H180" id="ay"/><path fill="#a9afb8" d="M140 405l46-156c120 36 205 19 263-150l32-93L54-1118h197c107 313 237 620 324 950 87-331 219-637 326-950h196L606 167c-68 178-176 259-334 259-64 0-113-12-132-21" id="az"/><g id="f"><use transform="matrix(0.006946072048611111,0,0,0.006946072048611111,0,0)" xlink:href="#ay"/><use transform="matrix(0.006946072048611111,0,0,0.006946072048611111,12.850233289930555,0)" xlink:href="#as"/><use transform="matrix(0.006946072048611111,0,0,0.006946072048611111,20.629833984375,0)" xlink:href="#az"/></g><path fill="#a9afb8" d="M154 0v-137l495-537c165-179 249-281 249-418 0-156-121-253-280-253-170 0-278 110-278 278H158c0-264 200-443 465-443 266 0 455 183 455 416 0 161-73 288-336 568L416-179v12h687V0H154" id="aA"/><path fill="#a9afb8" d="M128 359l88-567h206L266 359H128" id="aB"/><g id="g"><use transform="matrix(0.006946072048611111,0,0,0.006946072048611111,0,0)" xlink:href="#aA"/><use transform="matrix(0.006946072048611111,0,0,0.006946072048611111,8.675643988715278,0)" xlink:href="#aB"/></g><path fill="#a9afb8" d="M646 20c-332 0-524-278-524-764 0-483 194-766 524-766s524 283 524 766c0 485-191 764-524 764zm0-166c218 0 341-220 341-598 0-380-123-601-341-601s-341 222-341 601c0 378 123 598 341 598" id="aC"/><path fill="#a9afb8" d="M626 20c-262 0-458-168-468-396h184c12 133 134 229 284 229 180 0 311-137 311-326 0-192-136-335-323-335-92 0-196 33-255 78l-178-22 88-738h784v167H429l-51 435h8c61-51 160-87 263-87 273 0 474 211 474 499 0 286-210 496-497 496" id="aD"/><g id="h"><use transform="matrix(0.006946072048611111,0,0,0.006946072048611111,0,0)" xlink:href="#aA"/><use transform="matrix(0.006946072048611111,0,0,0.006946072048611111,8.675643988715278,0)" xlink:href="#aC"/><use transform="matrix(0.006946072048611111,0,0,0.006946072048611111,17.649969075520833,0)" xlink:href="#aA"/><use transform="matrix(0.006946072048611111,0,0,0.006946072048611111,26.32561306423611,0)" xlink:href="#aD"/></g><path fill="#fff" d="M87 0l247-1490h908l-28 167H496l-80 487h669l-28 167H387l-83 502h727L1004 0H87" id="aE"/><path fill="#fff" d="M66 0l185-1118h180L246 0H66zm307-1301c-71 0-117-55-106-119s74-119 145-119c65 0 117 50 106 118s-78 120-145 120" id="aF"/><g id="i"><use transform="matrix(0.008072916666666667,0,0,0.008072916666666667,0,0)" xlink:href="#aE"/><use transform="matrix(0.008072916666666667,0,0,0.008072916666666667,9.945833333333335,0)" xlink:href="#aF"/><use transform="matrix(0.008072916666666667,0,0,0.008072916666666667,13.95807291666667,0)" xlink:href="#Y"/><use transform="matrix(0.008072916666666667,0,0,0.008072916666666667,23.734375000000004,0)" xlink:href="#T"/><use transform="matrix(0.008072916666666667,0,0,0.008072916666666667,33.873958333333334,0)" xlink:href="#U"/><use transform="matrix(0.008072916666666667,0,0,0.008072916666666667,44.02161458333333,0)" xlink:href="#V"/><use transform="matrix(0.008072916666666667,0,0,0.008072916666666667,54.153125,0)" xlink:href="#W"/></g><path fill="#fff" d="M389 0L147-1118h188c55 314 135 617 168 951 141-329 323-637 482-951h205L578 0H389" id="aG"/><path fill="#fff" d="M66 0l185-1118h174l-28 172h12c78-136 219-209 411-185l-30 181c-211-47-398 67-428 250L246 0H66" id="aH"/><g id="j"><use transform="matrix(0.008072916666666667,0,0,0.008072916666666667,0,0)" xlink:href="#aG"/><use transform="matrix(0.008072916666666667,0,0,0.008072916666666667,8.969010416666668,0)" xlink:href="#W"/><use transform="matrix(0.008072916666666667,0,0,0.008072916666666667,18.48697916666667,0)" xlink:href="#aH"/><use transform="matrix(0.008072916666666667,0,0,0.008072916666666667,24.444791666666674,0)" xlink:href="#U"/><use transform="matrix(0.008072916666666667,0,0,0.008072916666666667,34.59244791666667,0)" xlink:href="#aH"/><use transform="matrix(0.008072916666666667,0,0,0.008072916666666667,41.08307291666667,0)" xlink:href="#V"/><use transform="matrix(0.008072916666666667,0,0,0.008072916666666667,51.21458333333334,0)" xlink:href="#W"/><use transform="matrix(0.008072916666666667,0,0,0.008072916666666667,60.73255208333334,0)" xlink:href="#aF"/><use transform="matrix(0.008072916666666667,0,0,0.008072916666666667,64.74479166666667,0)" xlink:href="#ab"/><use transform="matrix(0.008072916666666667,0,0,0.008072916666666667,70.00833333333334,0)" xlink:href="#W"/><use transform="matrix(0.008072916666666667,0,0,0.008072916666666667,79.52630208333333,0)" xlink:href="#Y"/></g><path fill="#fff" d="M87 0l247-1490h522c311 0 433 182 398 403-29 183-158 272-300 309v10c139 9 280 144 242 380C1160-164 988 0 639 0H87zm218-167h345c236 0 346-113 367-247 23-147-78-262-262-262H390zm111-669h323c157 0 307-105 334-265 21-124-42-222-237-222H497" id="aI"/><path fill="#fff" d="M492-1490L245 0H65l247-1490h180" id="aJ"/><path fill="#fff" d="M492 24C248 24 94-147 94-425c0-352 212-707 569-707 222 0 274 136 303 198h12l92-556h181L1004 0H829l30-173h-19C792-103 700 24 492 24zm32-161c268 0 407-295 407-549 0-175-80-285-247-285-266 0-408 283-408 536 0 174 79 298 248 298" id="aK"/><g id="k"><use transform="matrix(0.008072916666666667,0,0,0.008072916666666667,0,0)" xlink:href="#aI"/><use transform="matrix(0.008072916666666667,0,0,0.008072916666666667,10.817708333333334,0)" xlink:href="#aF"/><use transform="matrix(0.008072916666666667,0,0,0.008072916666666667,14.829947916666669,0)" xlink:href="#Y"/><use transform="matrix(0.008072916666666667,0,0,0.008072916666666667,24.606250000000003,0)" xlink:href="#T"/><use transform="matrix(0.008072916666666667,0,0,0.008072916666666667,34.74583333333334,0)" xlink:href="#aa"/><use transform="matrix(0.008072916666666667,0,0,0.008072916666666667,44.667447916666674,0)" xlink:href="#Z"/><use transform="matrix(0.008072916666666667,0,0,0.008072916666666667,50.35078125000001,0)" xlink:href="#W"/><use transform="matrix(0.008072916666666667,0,0,0.008072916666666667,59.86875000000001,0)" xlink:href="#aJ"/><use transform="matrix(0.008072916666666667,0,0,0.008072916666666667,63.87291666666668,0)" xlink:href="#aK"/></g><path fill="#fff" d="M443 14C219 14 87-123 134-408l117-710h180L317-423c-28 171 49 275 206 275s300-105 332-300l110-670h181L961 0H787l35-209C722-47 590 14 443 14zm75-1315c-66 0-110-54-99-119s73-118 139-118c65 0 109 53 98 118s-73 119-138 119zm421 0c-66 0-110-54-99-119s73-118 139-118c65 0 109 53 98 118s-73 119-138 119" id="aL"/><g id="l"><use transform="matrix(0.008072916666666667,0,0,0.008072916666666667,0,0)" xlink:href="#Z"/><use transform="matrix(0.008072916666666667,0,0,0.008072916666666667,6.167708333333334,0)" xlink:href="#aL"/><use transform="matrix(0.008072916666666667,0,0,0.008072916666666667,15.952083333333334,0)" xlink:href="#aJ"/><use transform="matrix(0.008072916666666667,0,0,0.008072916666666667,19.95625,0)" xlink:href="#aJ"/><use transform="matrix(0.008072916666666667,0,0,0.008072916666666667,23.960416666666667,0)" xlink:href="#W"/><use transform="matrix(0.008072916666666667,0,0,0.008072916666666667,33.47838541666667,0)" xlink:href="#Y"/></g><g id="m"><use transform="matrix(0.008072916666666667,0,0,0.008072916666666667,0,0)" xlink:href="#U"/><use transform="matrix(0.008072916666666667,0,0,0.008072916666666667,10.14765625,0)" xlink:href="#R"/><use transform="matrix(0.008072916666666667,0,0,0.008072916666666667,19.93203125,0)" xlink:href="#S"/><use transform="matrix(0.008072916666666667,0,0,0.008072916666666667,28.65078125,0)" xlink:href="#T"/><use transform="matrix(0.008072916666666667,0,0,0.008072916666666667,38.790364583333336,0)" xlink:href="#W"/><use transform="matrix(0.008072916666666667,0,0,0.008072916666666667,48.30833333333334,0)" xlink:href="#V"/><use transform="matrix(0.008072916666666667,0,0,0.008072916666666667,58.43984375000001,0)" xlink:href="#W"/><use transform="matrix(0.008072916666666667,0,0,0.008072916666666667,67.95781250000002,0)" xlink:href="#Y"/></g><path fill="#fff" d="M38 0l23-134 995-1189H249l28-167h1037l-23 136L295-167h807L1074 0H38" id="aM"/><path fill="#fff" d="M356-670L245 0H65l247-1490h180l-94 565c97-150 219-207 362-207 226 0 365 139 318 422L960 0H779l116-695c29-174-53-275-208-275-158 0-299 107-331 300" id="aN"/><g id="n"><use transform="matrix(0.008072916666666667,0,0,0.008072916666666667,0,0)" xlink:href="#aM"/><use transform="matrix(0.008072916666666667,0,0,0.008072916666666667,10.414062500000002,0)" xlink:href="#U"/><use transform="matrix(0.008072916666666667,0,0,0.008072916666666667,20.561718750000004,0)" xlink:href="#aN"/><use transform="matrix(0.008072916666666667,0,0,0.008072916666666667,30.33802083333334,0)" xlink:href="#aJ"/></g><path fill="#fff" d="M33 0l23-134 752-806 2-11H211l27-167h839l-24 143-732 797-2 11h620L912 0H33" id="aO"/><g id="o"><use transform="matrix(0.008072916666666667,0,0,0.008072916666666667,0,0)" xlink:href="#aO"/><use transform="matrix(0.008072916666666667,0,0,0.008072916666666667,9.13046875,0)" xlink:href="#aF"/><use transform="matrix(0.008072916666666667,0,0,0.008072916666666667,13.142708333333335,0)" xlink:href="#W"/><use transform="matrix(0.008072916666666667,0,0,0.008072916666666667,22.660677083333336,0)" xlink:href="#aN"/><use transform="matrix(0.008072916666666667,0,0,0.008072916666666667,32.436979166666674,0)" xlink:href="#W"/><use transform="matrix(0.008072916666666667,0,0,0.008072916666666667,41.954947916666676,0)" xlink:href="#Y"/></g><path fill="#666" d="M338-670V0H158v-1118h173l1 207c72-158 192-221 342-221 226 0 378 139 378 422V0H872v-695c0-172-96-275-252-275-161 0-282 109-282 300" id="aP"/><path fill="#666" d="M158 0v-1118h180V0H158zm91-1301c-68 0-125-53-125-119s57-119 125-119c69 0 126 53 126 119s-57 119-126 119" id="aQ"/><path fill="#666" d="M613 24c-304 0-509-231-509-576 0-350 205-580 509-580 216 0 392 114 453 309l-173 49c-33-115-133-197-280-197-223 0-326 196-326 419 0 220 103 415 326 415 150 0 252-85 285-206l172 49C1010-95 832 24 613 24" id="aR"/><path fill="#666" d="M338-670V0H158v-1490h180v566c73-149 190-208 336-208 226 0 379 139 379 422V0H872v-695c0-172-96-275-252-275-161 0-282 109-282 300" id="aS"/><path fill="#666" d="M598-1118v154H368v674c0 100 37 144 132 144 23 0 62-6 92-12L629-6c-37 13-88 20-134 20-193 0-307-107-307-290v-688H20v-154h168v-266h180v266h230" id="aT"/><g id="p"><use transform="matrix(0.0087890625,0,0,0.0087890625,0,0)" xlink:href="#aP"/><use transform="matrix(0.0087890625,0,0,0.0087890625,10.634765625,0)" xlink:href="#aQ"/><use transform="matrix(0.0087890625,0,0,0.0087890625,14.994140625,0)" xlink:href="#aR"/><use transform="matrix(0.0087890625,0,0,0.0087890625,25.27734375,0)" xlink:href="#aS"/><use transform="matrix(0.0087890625,0,0,0.0087890625,35.9208984375,0)" xlink:href="#aT"/></g><path fill="#666" d="M471 26C259 26 90-98 90-318c0-256 228-303 435-329 202-27 287-16 287-108 0-139-79-219-234-219-161 0-248 86-283 164l-173-57c86-203 278-265 451-265 150 0 419 46 419 395V0H815v-152h-12C765-73 660 26 471 26zm31-159c199 0 310-134 310-271v-155c-30 35-226 55-295 64-131 17-246 59-246 186 0 116 97 176 231 176" id="aU"/><path fill="#666" d="M338-1490V0H158v-1490h180" id="aV"/><path fill="#666" d="M628 24c-324 0-524-230-524-574 0-343 198-582 503-582 237 0 487 146 487 559v75H286c9 234 145 362 343 362 132 0 231-58 273-172l174 48C1024-91 857 24 628 24zM287-650h624c-17-190-120-322-304-322-192 0-309 151-320 322" id="aW"/><g id="q"><use transform="matrix(0.0087890625,0,0,0.0087890625,0,0)" xlink:href="#aU"/><use transform="matrix(0.0087890625,0,0,0.0087890625,10.107421875,0)" xlink:href="#aV"/><use transform="matrix(0.0087890625,0,0,0.0087890625,14.466796875,0)" xlink:href="#aV"/><use transform="matrix(0.0087890625,0,0,0.0087890625,18.826171875,0)" xlink:href="#aW"/></g><path fill="#666" d="M130 0v-134l666-991c45-67 96-135 147-202-269 9-546 3-821 5v-168h1036v136L502-379c-49 72-103 145-157 216 268-9 546-3 821-5V0H130" id="aX"/><g id="r"><use transform="matrix(0.0087890625,0,0,0.0087890625,0,0)" xlink:href="#aX"/><use transform="matrix(0.0087890625,0,0,0.0087890625,11.3203125,0)" xlink:href="#aU"/><use transform="matrix(0.0087890625,0,0,0.0087890625,21.427734375,0)" xlink:href="#aS"/><use transform="matrix(0.0087890625,0,0,0.0087890625,32.0712890625,0)" xlink:href="#aV"/><use transform="matrix(0.0087890625,0,0,0.0087890625,36.4306640625,0)" xlink:href="#aW"/><use transform="matrix(0.0087890625,0,0,0.0087890625,46.9248046875,0)" xlink:href="#aP"/></g><path fill="#666" d="M611 442c-248 0-391-105-460-228l146-94c47 65 117 165 314 165 178 0 307-82 307-266v-224h-17C863-141 792-18 576-18c-268 0-472-195-472-546 0-346 197-568 476-568 216 0 288 133 326 193h17v-179h175V29c0 289-215 413-487 413zm-5-620c203 0 314-146 314-390 0-237-108-403-314-403-213 0-319 180-319 403 0 230 109 390 319 390" id="aY"/><path fill="#666" d="M126 0v-134l627-806v-11H146v-167h839v143L376-178v11h629V0H126" id="aZ"/><path fill="#666" d="M613 24c-304 0-509-231-509-576 0-350 205-580 509-580 305 0 511 230 511 580 0 345-206 576-511 576zm0-161c226 0 329-195 329-415 0-222-103-419-329-419-223 0-326 196-326 419 0 220 103 415 326 415" id="ba"/><g id="s"><use transform="matrix(0.0087890625,0,0,0.0087890625,0,0)" xlink:href="#aY"/><use transform="matrix(0.0087890625,0,0,0.0087890625,11.0390625,0)" xlink:href="#aW"/><use transform="matrix(0.0087890625,0,0,0.0087890625,21.26953125,0)" xlink:href="#aZ"/><use transform="matrix(0.0087890625,0,0,0.0087890625,30.9462890625,0)" xlink:href="#ba"/><use transform="matrix(0.0087890625,0,0,0.0087890625,41.7392578125,0)" xlink:href="#aY"/><use transform="matrix(0.0087890625,0,0,0.0087890625,52.7783203125,0)" xlink:href="#aW"/><use transform="matrix(0.0087890625,0,0,0.0087890625,63.2724609375,0)" xlink:href="#aP"/></g><g id="t"><use transform="matrix(0.0087890625,0,0,0.0087890625,0,0)" xlink:href="#aX"/><use transform="matrix(0.0087890625,0,0,0.0087890625,11.3203125,0)" xlink:href="#aU"/><use transform="matrix(0.0087890625,0,0,0.0087890625,21.427734375,0)" xlink:href="#aS"/><use transform="matrix(0.0087890625,0,0,0.0087890625,32.0712890625,0)" xlink:href="#aV"/></g><path fill="#666" d="M481 0L54-1118h197c107 314 236 620 325 951 87-331 217-637 324-951h197L670 0H481" id="bb"/><path fill="#666" d="M577 24c-279 0-473-224-473-580 0-354 195-576 474-576 218 0 287 134 324 193h14v-551h180V0H922v-173h-20C865-111 790 24 577 24zm27-161c203 0 314-172 314-421 0-247-108-413-314-413-212 0-317 181-317 413 0 235 108 421 317 421" id="bc"/><g id="u"><use transform="matrix(0.0087890625,0,0,0.0087890625,0,0)" xlink:href="#bb"/><use transform="matrix(0.0087890625,0,0,0.0087890625,10.0283203125,0)" xlink:href="#aU"/><use transform="matrix(0.0087890625,0,0,0.0087890625,20.1357421875,0)" xlink:href="#aV"/><use transform="matrix(0.0087890625,0,0,0.0087890625,24.4951171875,0)" xlink:href="#aQ"/><use transform="matrix(0.0087890625,0,0,0.0087890625,28.8544921875,0)" xlink:href="#bc"/></g><g id="v"><use transform="matrix(0.0087890625,0,0,0.0087890625,0,0)" xlink:href="#aQ"/><use transform="matrix(0.0087890625,0,0,0.0087890625,4.359375,0)" xlink:href="#aP"/><use transform="matrix(0.0087890625,0,0,0.0087890625,14.73046875,0)" xlink:href="#bb"/><use transform="matrix(0.0087890625,0,0,0.0087890625,24.7587890625,0)" xlink:href="#aU"/><use transform="matrix(0.0087890625,0,0,0.0087890625,34.8662109375,0)" xlink:href="#aV"/><use transform="matrix(0.0087890625,0,0,0.0087890625,39.2255859375,0)" xlink:href="#aQ"/><use transform="matrix(0.0087890625,0,0,0.0087890625,43.5849609375,0)" xlink:href="#bc"/></g><path fill="#666" d="M52 0l541-1490h220L1361 0h-200l-149-416H398L254 0H52zm404-582h497c-103-290-145-390-251-756-108 377-145 460-246 756" id="bd"/><g id="w"><use transform="matrix(0.0087890625,0,0,0.0087890625,0,0)" xlink:href="#bd"/><use transform="matrix(0.0087890625,0,0,0.0087890625,12.4189453125,0)" xlink:href="#aV"/><use transform="matrix(0.0087890625,0,0,0.0087890625,16.7783203125,0)" xlink:href="#aV"/><use transform="matrix(0.0087890625,0,0,0.0087890625,21.1376953125,0)" xlink:href="#aW"/></g><g id="x"><use transform="matrix(0.0087890625,0,0,0.0087890625,0,0)" xlink:href="#aZ"/><use transform="matrix(0.0087890625,0,0,0.0087890625,9.9404296875,0)" xlink:href="#aU"/><use transform="matrix(0.0087890625,0,0,0.0087890625,20.0478515625,0)" xlink:href="#aS"/><use transform="matrix(0.0087890625,0,0,0.0087890625,30.69140625,0)" xlink:href="#aV"/><use transform="matrix(0.0087890625,0,0,0.0087890625,35.05078125,0)" xlink:href="#aW"/><use transform="matrix(0.0087890625,0,0,0.0087890625,45.544921875,0)" xlink:href="#aP"/></g><path fill="#666" d="M158 0v-1118h175l1 205c55-151 181-225 313-225 147 0 245 90 285 228 53-141 190-228 352-228 194 0 352 125 352 384V0h-181v-749c0-161-105-225-225-225-151 0-243 103-243 244V0H807v-767c0-124-93-207-219-207-131 0-250 92-250 270V0H158" id="be"/><g id="y"><use transform="matrix(0.0087890625,0,0,0.0087890625,0,0)" xlink:href="#aQ"/><use transform="matrix(0.0087890625,0,0,0.0087890625,4.359375,0)" xlink:href="#be"/></g><path fill="#666" d="M180 0v-1490h901v168H370v510h643v168H370V0H180" id="bf"/><g id="z"><use transform="matrix(0.0087890625,0,0,0.0087890625,0,0)" xlink:href="#bf"/><use transform="matrix(0.0087890625,0,0,0.0087890625,9.9140625,0)" xlink:href="#aW"/><use transform="matrix(0.0087890625,0,0,0.0087890625,20.408203125,0)" xlink:href="#aV"/><use transform="matrix(0.0087890625,0,0,0.0087890625,24.767578125,0)" xlink:href="#bc"/></g><g id="A"><use transform="matrix(0.0087890625,0,0,0.0087890625,0,0)" xlink:href="#bf"/><use transform="matrix(0.0087890625,0,0,0.0087890625,9.9140625,0)" xlink:href="#aW"/><use transform="matrix(0.0087890625,0,0,0.0087890625,20.408203125,0)" xlink:href="#aV"/><use transform="matrix(0.0087890625,0,0,0.0087890625,24.767578125,0)" xlink:href="#bc"/></g><path fill="#666" d="M537 14c-226 0-379-139-379-422v-710h180v695c0 172 97 275 253 275 160 0 281-109 281-300v-670h181V0H879v-209C806-46 684 14 537 14" id="bg"/><path fill="#666" d="M678-1118v154H420V0H240v-964H20v-154h220v-149c0-194 155-293 318-293 85 0 141 18 168 30l-50 154c-19-6-47-17-97-17-111 0-159 58-159 166v109h258" id="bh"/><g id="B"><use transform="matrix(0.0087890625,0,0,0.0087890625,0,0)" xlink:href="#aU"/><use transform="matrix(0.0087890625,0,0,0.0087890625,10.107421875,0)" xlink:href="#bg"/><use transform="matrix(0.0087890625,0,0,0.0087890625,20.7509765625,0)" xlink:href="#bh"/></g><path fill="#666" d="M65 0l393-574-370-544h210c88 136 192 297 267 435 67-142 176-302 264-435h206L661-564 1053 0H844c-94-144-206-310-287-458C484-308 366-142 273 0H65" id="bi"/><use transform="matrix(0.0087890625,0,0,0.0087890625,0,0)" xlink:href="#bi" id="C"/><path fill="#666" d="M538 24C308 24 148-78 108-271l171-41c32 123 123 178 257 178 156 0 256-77 256-169 0-77-54-128-164-154l-186-44c-203-48-300-148-300-305 0-192 176-326 414-326 230 0 351 112 402 269l-163 42c-31-80-94-158-238-158-133 0-233 69-233 162 0 83 57 129 188 160l169 40c203 48 298 149 298 302 0 196-179 339-441 339" id="bj"/><g id="D"><use transform="matrix(0.0087890625,0,0,0.0087890625,0,0)" xlink:href="#bj"/><use transform="matrix(0.0087890625,0,0,0.0087890625,9.5009765625,0)" xlink:href="#aW"/><use transform="matrix(0.0087890625,0,0,0.0087890625,19.9951171875,0)" xlink:href="#aT"/><use transform="matrix(0.0087890625,0,0,0.0087890625,25.8837890625,0)" xlink:href="#aZ"/><use transform="matrix(0.0087890625,0,0,0.0087890625,35.560546875,0)" xlink:href="#aW"/><use transform="matrix(0.0087890625,0,0,0.0087890625,46.0546875,0)" xlink:href="#aP"/></g><g id="E"><use transform="matrix(0.0087890625,0,0,0.0087890625,0,0)" xlink:href="#aP"/><use transform="matrix(0.0087890625,0,0,0.0087890625,10.634765625,0)" xlink:href="#aQ"/><use transform="matrix(0.0087890625,0,0,0.0087890625,14.994140625,0)" xlink:href="#aR"/><use transform="matrix(0.0087890625,0,0,0.0087890625,25.27734375,0)" xlink:href="#aS"/><use transform="matrix(0.0087890625,0,0,0.0087890625,35.9208984375,0)" xlink:href="#aT"/></g><path fill="#666" d="M789 20c-398 0-667-293-667-764 0-473 273-766 655-766 315 0 558 198 612 487h-196c-61-191-204-311-415-311-262 0-471 207-471 590 0 380 208 588 482 588 249 0 420-165 425-427H828v-166h572v163c0 370-256 606-611 606" id="bk"/><path fill="#666" d="M409 0L70-1118h191c89 329 165 560 243 925 75-353 154-601 240-925h192c85 325 161 564 235 922 77-354 157-598 244-922h191L1267 0h-179c-86-307-176-590-250-913C763-588 675-308 588 0H409" id="bl"/><path fill="#666" d="M677 24c-213 0-288-135-325-197h-20V0H158v-1490h180v551h14c37-59 106-193 324-193 279 0 474 222 474 576 0 356-194 580-473 580zm-27-161c209 0 317-186 317-421 0-232-105-413-317-413-206 0-314 166-314 413 0 249 111 421 314 421" id="bm"/><g id="F"><use transform="matrix(0.0087890625,0,0,0.0087890625,0,0)" xlink:href="#bk"/><use transform="matrix(0.0087890625,0,0,0.0087890625,13.4296875,0)" xlink:href="#aW"/><use transform="matrix(0.0087890625,0,0,0.0087890625,23.5986328125,0)" xlink:href="#bl"/><use transform="matrix(0.0087890625,0,0,0.0087890625,38.3291015625,0)" xlink:href="#aQ"/><use transform="matrix(0.0087890625,0,0,0.0087890625,42.6884765625,0)" xlink:href="#aP"/><use transform="matrix(0.0087890625,0,0,0.0087890625,53.3232421875,0)" xlink:href="#aP"/><use transform="matrix(0.0087890625,0,0,0.0087890625,63.9580078125,0)" xlink:href="#bm"/><use transform="matrix(0.0087890625,0,0,0.0087890625,74.9794921875,0)" xlink:href="#aW"/><use transform="matrix(0.0087890625,0,0,0.0087890625,85.4736328125,0)" xlink:href="#bc"/><use transform="matrix(0.0087890625,0,0,0.0087890625,96.4951171875,0)" xlink:href="#aQ"/><use transform="matrix(0.0087890625,0,0,0.0087890625,100.8544921875,0)" xlink:href="#aP"/><use transform="matrix(0.0087890625,0,0,0.0087890625,111.4892578125,0)" xlink:href="#aY"/><use transform="matrix(0.0087890625,0,0,0.0087890625,122.5283203125,0)" xlink:href="#bg"/><use transform="matrix(0.0087890625,0,0,0.0087890625,133.171875,0)" xlink:href="#aP"/><use transform="matrix(0.0087890625,0,0,0.0087890625,143.806640625,0)" xlink:href="#aY"/><use transform="matrix(0.0087890625,0,0,0.0087890625,154.845703125,0)" xlink:href="#aW"/><use transform="matrix(0.0087890625,0,0,0.0087890625,165.33984375,0)" xlink:href="#aP"/></g><path fill="#666" d="M158 418v-1536h174v179h20c37-59 106-193 324-193 279 0 474 222 474 576 0 356-194 580-473 580-213 0-288-135-325-197h-14v591H158zm492-555c209 0 317-186 317-421 0-232-105-413-317-413-206 0-314 166-314 413 0 249 111 421 314 421" id="bn"/><path fill="#666" d="M158 0v-1118h174v172h12c41-113 157-188 290-188 26 0 70 2 91 3v181c-11-2-60-10-108-10-161 0-279 109-279 260V0H158" id="bo"/><path fill="#666" d="M537 14c-226 0-379-139-379-422v-710h180v695c0 172 97 275 253 275 160 0 281-109 281-300v-670h181V0H879v-209C806-46 684 14 537 14zM395-1301c-66 0-119-54-119-119s53-118 119-118c65 0 118 53 118 118s-53 119-118 119zm421 0c-66 0-119-54-119-119s53-118 119-118c65 0 118 53 118 118s-53 119-118 119" id="bp"/><g id="G"><use transform="matrix(0.0087890625,0,0,0.0087890625,0,0)" xlink:href="#bn"/><use transform="matrix(0.0087890625,0,0,0.0087890625,11.021484375,0)" xlink:href="#bo"/><use transform="matrix(0.0087890625,0,0,0.0087890625,17.7978515625,0)" xlink:href="#bp"/><use transform="matrix(0.0087890625,0,0,0.0087890625,28.44140625,0)" xlink:href="#bh"/><use transform="matrix(0.0087890625,0,0,0.0087890625,34.576171875,0)" xlink:href="#aW"/><use transform="matrix(0.0087890625,0,0,0.0087890625,45.0703125,0)" xlink:href="#aP"/></g><g id="H"><use transform="matrix(0.0087890625,0,0,0.0087890625,0,0)" xlink:href="#aY"/><use transform="matrix(0.0087890625,0,0,0.0087890625,11.0390625,0)" xlink:href="#aW"/><use transform="matrix(0.0087890625,0,0,0.0087890625,21.2080078125,0)" xlink:href="#bl"/><use transform="matrix(0.0087890625,0,0,0.0087890625,35.61328125,0)" xlink:href="#ba"/><use transform="matrix(0.0087890625,0,0,0.0087890625,46.40625,0)" xlink:href="#aP"/><use transform="matrix(0.0087890625,0,0,0.0087890625,57.041015625,0)" xlink:href="#aP"/><use transform="matrix(0.0087890625,0,0,0.0087890625,67.67578125,0)" xlink:href="#aW"/><use transform="matrix(0.0087890625,0,0,0.0087890625,78.169921875,0)" xlink:href="#aP"/></g><g id="I"><use transform="matrix(0.0087890625,0,0,0.0087890625,0,0)" xlink:href="#bk"/><use transform="matrix(0.0087890625,0,0,0.0087890625,13.4296875,0)" xlink:href="#aW"/><use transform="matrix(0.0087890625,0,0,0.0087890625,23.5986328125,0)" xlink:href="#bl"/><use transform="matrix(0.0087890625,0,0,0.0087890625,38.00390625,0)" xlink:href="#ba"/><use transform="matrix(0.0087890625,0,0,0.0087890625,48.796875,0)" xlink:href="#aP"/><use transform="matrix(0.0087890625,0,0,0.0087890625,59.431640625,0)" xlink:href="#aP"/><use transform="matrix(0.0087890625,0,0,0.0087890625,70.06640625,0)" xlink:href="#aW"/><use transform="matrix(0.0087890625,0,0,0.0087890625,80.560546875,0)" xlink:href="#aP"/></g><path fill="#666" d="M545 20c-263 0-445-160-445-446v-80h190v80c0 182 102 279 255 279 152 0 254-97 254-279v-1064h190v1064c0 286-181 446-444 446" id="bq"/><g id="J"><use transform="matrix(0.0087890625,0,0,0.0087890625,0,0)" xlink:href="#bq"/><use transform="matrix(0.0087890625,0,0,0.0087890625,10.2744140625,0)" xlink:href="#aW"/><use transform="matrix(0.0087890625,0,0,0.0087890625,20.7685546875,0)" xlink:href="#aT"/><use transform="matrix(0.0087890625,0,0,0.0087890625,26.4814453125,0)" xlink:href="#ba"/><use transform="matrix(0.0087890625,0,0,0.0087890625,37.2744140625,0)" xlink:href="#aP"/><use transform="matrix(0.0087890625,0,0,0.0087890625,47.9091796875,0)" xlink:href="#aT"/><use transform="matrix(0.0087890625,0,0,0.0087890625,53.6220703125,0)" xlink:href="#bj"/></g><g id="K"><use transform="matrix(0.0087890625,0,0,0.0087890625,0,0)" xlink:href="#aY"/><use transform="matrix(0.0087890625,0,0,0.0087890625,11.0390625,0)" xlink:href="#bg"/><use transform="matrix(0.0087890625,0,0,0.0087890625,21.6826171875,0)" xlink:href="#aT"/><use transform="matrix(0.0087890625,0,0,0.0087890625,27.3955078125,0)" xlink:href="#bj"/><use transform="matrix(0.0087890625,0,0,0.0087890625,36.896484375,0)" xlink:href="#aR"/><use transform="matrix(0.0087890625,0,0,0.0087890625,47.1796875,0)" xlink:href="#aS"/><use transform="matrix(0.0087890625,0,0,0.0087890625,57.8232421875,0)" xlink:href="#bo"/><use transform="matrix(0.0087890625,0,0,0.0087890625,64.30078125,0)" xlink:href="#aW"/><use transform="matrix(0.0087890625,0,0,0.0087890625,74.794921875,0)" xlink:href="#aQ"/><use transform="matrix(0.0087890625,0,0,0.0087890625,79.154296875,0)" xlink:href="#bm"/><use transform="matrix(0.0087890625,0,0,0.0087890625,90.17578125,0)" xlink:href="#aW"/><use transform="matrix(0.0087890625,0,0,0.0087890625,100.669921875,0)" xlink:href="#aP"/></g><path fill="#666" d="M657 26c-323 0-524-166-541-416h195c15 169 171 246 346 246 202 0 356-106 356-265 5-203-294-238-475-293-239-73-380-191-380-389 0-252 224-419 512-419 294 0 499 171 508 396H992c-17-145-151-228-328-228-193 0-321 102-321 242 0 156 175 211 284 241l149 41c160 44 422 134 422 412 0 244-197 432-541 432" id="br"/><g id="L"><use transform="matrix(0.0087890625,0,0,0.0087890625,0,0)" xlink:href="#br"/><use transform="matrix(0.0087890625,0,0,0.0087890625,11.548828125,0)" xlink:href="#bn"/><use transform="matrix(0.0087890625,0,0,0.0087890625,22.5703125,0)" xlink:href="#aQ"/><use transform="matrix(0.0087890625,0,0,0.0087890625,26.9296875,0)" xlink:href="#aW"/><use transform="matrix(0.0087890625,0,0,0.0087890625,37.423828125,0)" xlink:href="#aV"/></g><path fill="#666" d="M158 0v-1490h180v865h22l478-493h223L593-638 1096 0H865L456-523 338-412V0H158" id="bs"/><g id="M"><use transform="matrix(0.0087890625,0,0,0.0087890625,0,0)" xlink:href="#aZ"/><use transform="matrix(0.0087890625,0,0,0.0087890625,9.9404296875,0)" xlink:href="#bg"/><use transform="matrix(0.0087890625,0,0,0.0087890625,20.583984375,0)" xlink:href="#bo"/><use transform="matrix(0.0087890625,0,0,0.0087890625,27.3603515625,0)" xlink:href="#bp"/><use transform="matrix(0.0087890625,0,0,0.0087890625,38.00390625,0)" xlink:href="#aR"/><use transform="matrix(0.0087890625,0,0,0.0087890625,48.287109375,0)" xlink:href="#bs"/><use transform="matrix(0.0087890625,0,0,0.0087890625,58.166015625,0)" xlink:href="#bj"/><use transform="matrix(0.0087890625,0,0,0.0087890625,67.6669921875,0)" xlink:href="#aW"/><use transform="matrix(0.0087890625,0,0,0.0087890625,78.1611328125,0)" xlink:href="#aT"/><use transform="matrix(0.0087890625,0,0,0.0087890625,84.0498046875,0)" xlink:href="#aZ"/><use transform="matrix(0.0087890625,0,0,0.0087890625,93.7265625,0)" xlink:href="#aW"/><use transform="matrix(0.0087890625,0,0,0.0087890625,104.220703125,0)" xlink:href="#aP"/></g><g id="N"><use transform="matrix(0.0087890625,0,0,0.0087890625,0,0)" xlink:href="#bf"/><use transform="matrix(0.0087890625,0,0,0.0087890625,9.9140625,0)" xlink:href="#aW"/><use transform="matrix(0.0087890625,0,0,0.0087890625,20.408203125,0)" xlink:href="#aV"/><use transform="matrix(0.0087890625,0,0,0.0087890625,24.767578125,0)" xlink:href="#bc"/><use transform="matrix(0.0087890625,0,0,0.0087890625,35.7890625,0)" xlink:href="#aW"/><use transform="matrix(0.0087890625,0,0,0.0087890625,46.283203125,0)" xlink:href="#bo"/></g><g id="O"><use transform="matrix(0.0087890625,0,0,0.0087890625,0,0)" xlink:href="#aY"/><use transform="matrix(0.0087890625,0,0,0.0087890625,11.0390625,0)" xlink:href="#aW"/><use transform="matrix(0.0087890625,0,0,0.0087890625,21.533203125,0)" xlink:href="#bh"/><use transform="matrix(0.0087890625,0,0,0.0087890625,28.1953125,0)" xlink:href="#bp"/><use transform="matrix(0.0087890625,0,0,0.0087890625,38.8388671875,0)" xlink:href="#aV"/><use transform="matrix(0.0087890625,0,0,0.0087890625,43.1982421875,0)" xlink:href="#aV"/><use transform="matrix(0.0087890625,0,0,0.0087890625,47.8212890625,0)" xlink:href="#aT"/></g><path fill="#666" d="M180 0v-1490h908v168H370v486h669v168H370v500h727V0H180" id="bt"/><g id="P"><use transform="matrix(0.0087890625,0,0,0.0087890625,0,0)" xlink:href="#bt"/><use transform="matrix(0.0087890625,0,0,0.0087890625,10.8193359375,0)" xlink:href="#aQ"/><use transform="matrix(0.0087890625,0,0,0.0087890625,15.1787109375,0)" xlink:href="#aP"/><use transform="matrix(0.0087890625,0,0,0.0087890625,25.8134765625,0)" xlink:href="#aY"/><use transform="matrix(0.0087890625,0,0,0.0087890625,36.8525390625,0)" xlink:href="#aU"/><use transform="matrix(0.0087890625,0,0,0.0087890625,46.9599609375,0)" xlink:href="#bm"/><use transform="matrix(0.0087890625,0,0,0.0087890625,57.9814453125,0)" xlink:href="#aW"/></g></defs></g></svg>