<svg xmlns="http://www.w3.org/2000/svg" xmlns:xlink="http://www.w3.org/1999/xlink" xmlns:lucid="lucid" width="1782" height="887"><g transform="translate(-119 -59)" lucid:page-tab-id="HWEp-vi-RSFO"><path d="M0 0h2353.52v1360H0z" fill="#fff"/><path d="M120 60h360v287H120z" stroke="#000" stroke-width="2" fill="#fff"/><path d="M120 97.78h360m-360 85.4h360" stroke="#000" stroke-width="2" fill="none"/><use xlink:href="#a" transform="matrix(1,0,0,1,128,68) translate(141.16796875 17.5478515625)"/><use xlink:href="#b" transform="matrix(1,0,0,1,132,105.779296875) translate(0 28.480273437500003)"/><use xlink:href="#c" transform="matrix(1,0,0,1,132,105.779296875) translate(65.53125 28.480273437500003)"/><use xlink:href="#d" transform="matrix(1,0,0,1,132,105.779296875) translate(0 54.6154296875)"/><use xlink:href="#e" transform="matrix(1,0,0,1,132,105.779296875) translate(70.0224609375 54.6154296875)"/><use xlink:href="#f" transform="matrix(1,0,0,1,132,191.19375) translate(0 28.277539062500004)"/><use xlink:href="#g" transform="matrix(1,0,0,1,132,191.19375) translate(134.7802734375 28.277539062500004)"/><use xlink:href="#h" transform="matrix(1,0,0,1,132,191.19375) translate(195.556640625 28.277539062500004)"/><use xlink:href="#i" transform="matrix(1,0,0,1,132,191.19375) translate(226.6875 28.277539062500004)"/><use xlink:href="#j" transform="matrix(1,0,0,1,132,191.19375) translate(0 54.412695312500006)"/><use xlink:href="#k" transform="matrix(1,0,0,1,132,191.19375) translate(112.640625 54.412695312500006)"/><use xlink:href="#l" transform="matrix(1,0,0,1,132,191.19375) translate(0 80.5478515625)"/><use xlink:href="#m" transform="matrix(1,0,0,1,132,191.19375) translate(120.1201171875 80.5478515625)"/><use xlink:href="#n" transform="matrix(1,0,0,1,132,191.19375) translate(0 106.6830078125)"/><use xlink:href="#o" transform="matrix(1,0,0,1,132,191.19375) translate(173.6103515625 106.6830078125)"/><use xlink:href="#p" transform="matrix(1,0,0,1,132,191.19375) translate(0 132.8181640625)"/><use xlink:href="#q" transform="matrix(1,0,0,1,132,191.19375) translate(204.8994140625 132.8181640625)"/><path d="M660 60h360v386H660z" stroke="#000" stroke-width="2" fill="#fff"/><path d="M660 123.9h360" stroke="#000" stroke-width="2" fill="none"/><use xlink:href="#r" transform="matrix(1,0,0,1,668,68) translate(92.67431640625 17.480273437500003)"/><use xlink:href="#s" transform="matrix(1,0,0,1,668,68) translate(96.8623046875 43.6154296875)"/><use xlink:href="#t" transform="matrix(1,0,0,1,672,131.914453125) translate(0 68.0748046875)"/><use xlink:href="#u" transform="matrix(1,0,0,1,672,131.914453125) translate(219.251953125 68.0748046875)"/><use xlink:href="#v" transform="matrix(1,0,0,1,672,131.914453125) translate(0 94.2099609375)"/><use xlink:href="#w" transform="matrix(1,0,0,1,672,131.914453125) translate(67.25390625 94.2099609375)"/><use xlink:href="#j" transform="matrix(1,0,0,1,672,131.914453125) translate(0 120.3451171875)"/><use xlink:href="#c" transform="matrix(1,0,0,1,672,131.914453125) translate(112.640625 120.3451171875)"/><use xlink:href="#x" transform="matrix(1,0,0,1,672,131.914453125) translate(0 146.4802734375)"/><use xlink:href="#y" transform="matrix(1,0,0,1,672,131.914453125) translate(161.841796875 146.4802734375)"/><use xlink:href="#z" transform="matrix(1,0,0,1,672,131.914453125) translate(0 172.6154296875)"/><use xlink:href="#A" transform="matrix(1,0,0,1,672,131.914453125) translate(253.283203125 172.6154296875)"/><use xlink:href="#B" transform="matrix(1,0,0,1,672,131.914453125) translate(0 198.7505859375)"/><use xlink:href="#C" transform="matrix(1,0,0,1,672,131.914453125) translate(0 224.8857421875)"/><use xlink:href="#D" transform="matrix(1,0,0,1,672,131.914453125) translate(168 251.0208984375)"/><path d="M628.63 253H576.5a6.5 6.5 0 0 1-6.5-6.5 6.5 6.5 0 0 0-6.5-6.5h-81.6" stroke="#333" fill="none"/><path d="M658.3 253l-14.86-14.85L628.6 253l14.84 14.85z" stroke="#333" fill="#333"/><path d="M499.32 250L482 240l17.32-10" stroke="#333" fill="none"/><g><use xlink:href="#E" transform="matrix(1,0,0,1,652.5956005859375,213.24525390624999) translate(0 16.216875)"/></g><g><use xlink:href="#E" transform="matrix(1,0,0,1,480.5956005859376,254) translate(0 16.216875)"/></g><path d="M660 580h360v339H660z" stroke="#000" stroke-width="2" fill="#fff"/><path d="M660 617.78h360M660 729.33h360" stroke="#000" stroke-width="2" fill="none"/><g><use xlink:href="#F" transform="matrix(1,0,0,1,668,588) translate(146.79736328125 17.5478515625)"/></g><g><use xlink:href="#G" transform="matrix(1,0,0,1,672,625.779296875) translate(0 28.412695312500006)"/><use xlink:href="#H" transform="matrix(1,0,0,1,672,625.779296875) translate(87.134765625 28.412695312500006)"/><use xlink:href="#I" transform="matrix(1,0,0,1,672,625.779296875) translate(0 54.5478515625)"/><use xlink:href="#J" transform="matrix(1,0,0,1,672,625.779296875) translate(94.0517578125 54.5478515625)"/><use xlink:href="#K" transform="matrix(1,0,0,1,672,625.779296875) translate(0 80.6830078125)"/><use xlink:href="#L" transform="matrix(1,0,0,1,672,625.779296875) translate(98.4111328125 80.6830078125)"/></g><g><use xlink:href="#x" transform="matrix(1,0,0,1,672,737.32890625) translate(0 28.2099609375)"/><use xlink:href="#y" transform="matrix(1,0,0,1,672,737.32890625) translate(161.841796875 28.2099609375)"/><use xlink:href="#z" transform="matrix(1,0,0,1,672,737.32890625) translate(0 54.345117187499994)"/><use xlink:href="#A" transform="matrix(1,0,0,1,672,737.32890625) translate(253.283203125 54.345117187499994)"/><use xlink:href="#B" transform="matrix(1,0,0,1,672,737.32890625) translate(0 80.48027343749999)"/><use xlink:href="#C" transform="matrix(1,0,0,1,672,737.32890625) translate(0 106.6154296875)"/><use xlink:href="#M" transform="matrix(1,0,0,1,672,737.32890625) translate(0 132.75058593749998)"/><use xlink:href="#N" transform="matrix(1,0,0,1,672,737.32890625) translate(0 158.8857421875)"/></g><path d="M840 578.5V463.38" stroke="#333" fill="none"/><path d="M840.48 579h-.96v-.5h.96z" stroke="#333" stroke-width=".05" fill="#333"/><path d="M840 448.62l4.63 14.26h-9.26z" stroke="#333" fill="#333"/><path d="M1100 580h360v235h-360z" stroke="#000" stroke-width="2" fill="#fff"/><path d="M1100 617.78h360m-360 111.55h360" stroke="#000" stroke-width="2" fill="none"/><g><use xlink:href="#O" transform="matrix(1,0,0,1,1108,588) translate(133.33251953125 17.5478515625)"/></g><g><use xlink:href="#P" transform="matrix(1,0,0,1,1112,625.779296875) translate(0 28.412695312500006)"/><use xlink:href="#Q" transform="matrix(1,0,0,1,1112,625.779296875) translate(97.681640625 28.412695312500006)"/><use xlink:href="#R" transform="matrix(1,0,0,1,1112,625.779296875) translate(0 54.5478515625)"/><use xlink:href="#c" transform="matrix(1,0,0,1,1112,625.779296875) translate(146.28515625 54.5478515625)"/><use xlink:href="#S" transform="matrix(1,0,0,1,1112,625.779296875) translate(0 80.6830078125)"/><use xlink:href="#T" transform="matrix(1,0,0,1,1112,625.779296875) translate(150.7939453125 80.6830078125)"/></g><g><use xlink:href="#U" transform="matrix(1,0,0,1,1112,737.32890625) translate(0 28.480273437500003)"/><use xlink:href="#V" transform="matrix(1,0,0,1,1112,737.32890625) translate(0 54.6154296875)"/></g><path d="M1540 580h360v365h-360z" stroke="#000" stroke-width="2" fill="#fff"/><path d="M1540 617.78h360m-360 111.55h360" stroke="#000" stroke-width="2" fill="none"/><g><use xlink:href="#W" transform="matrix(1,0,0,1,1548,588) translate(153.50341796875 17.5478515625)"/></g><g><use xlink:href="#X" transform="matrix(1,0,0,1,1552,625.779296875) translate(0 28.412695312500006)"/><use xlink:href="#m" transform="matrix(1,0,0,1,1552,625.779296875) translate(64.16015625 28.412695312500006)"/><use xlink:href="#Y" transform="matrix(1,0,0,1,1552,625.779296875) translate(0 54.5478515625)"/><use xlink:href="#Z" transform="matrix(1,0,0,1,1552,625.779296875) translate(92.4345703125 54.5478515625)"/><use xlink:href="#aa" transform="matrix(1,0,0,1,1552,625.779296875) translate(0 80.6830078125)"/><use xlink:href="#T" transform="matrix(1,0,0,1,1552,625.779296875) translate(125.859375 80.6830078125)"/></g><g><use xlink:href="#ab" transform="matrix(1,0,0,1,1552,737.32890625) translate(0 28.642382812500003)"/><use xlink:href="#ac" transform="matrix(1,0,0,1,1552,737.32890625) translate(16.9716796875 28.642382812500003)"/><use xlink:href="#ad" transform="matrix(1,0,0,1,1552,737.32890625) translate(152.2353515625 28.642382812500003)"/><use xlink:href="#ae" transform="matrix(1,0,0,1,1552,737.32890625) translate(189.931640625 28.642382812500003)"/><use xlink:href="#ab" transform="matrix(1,0,0,1,1552,737.32890625) translate(0 54.7775390625)"/><use xlink:href="#af" transform="matrix(1,0,0,1,1552,737.32890625) translate(16.9716796875 54.7775390625)"/><use xlink:href="#ag" transform="matrix(1,0,0,1,1552,737.32890625) translate(114.7060546875 54.7775390625)"/><use xlink:href="#ab" transform="matrix(1,0,0,1,1552,737.32890625) translate(0 80.9126953125)"/><use xlink:href="#ah" transform="matrix(1,0,0,1,1552,737.32890625) translate(16.9716796875 80.9126953125)"/><use xlink:href="#ai" transform="matrix(1,0,0,1,1552,737.32890625) translate(209.671875 80.9126953125)"/><use xlink:href="#ae" transform="matrix(1,0,0,1,1552,737.32890625) translate(294.8642578125 80.9126953125)"/><use xlink:href="#ab" transform="matrix(1,0,0,1,1552,737.32890625) translate(0 107.0478515625)"/><use xlink:href="#aj" transform="matrix(1,0,0,1,1552,737.32890625) translate(16.9716796875 107.0478515625)"/><use xlink:href="#ak" transform="matrix(1,0,0,1,1552,737.32890625) translate(130.5087890625 107.0478515625)"/><use xlink:href="#ab" transform="matrix(1,0,0,1,1552,737.32890625) translate(0 133.1830078125)"/><use xlink:href="#al" transform="matrix(1,0,0,1,1552,737.32890625) translate(16.9716796875 133.1830078125)"/><use xlink:href="#am" transform="matrix(1,0,0,1,1552,737.32890625) translate(0 159.3181640625)"/><use xlink:href="#ae" transform="matrix(1,0,0,1,1552,737.32890625) translate(67.341796875 159.3181640625)"/><use xlink:href="#ab" transform="matrix(1,0,0,1,1552,737.32890625) translate(0 185.4533203125)"/><use xlink:href="#an" transform="matrix(1,0,0,1,1552,737.32890625) translate(16.9716796875 185.4533203125)"/><use xlink:href="#ao" transform="matrix(1,0,0,1,1552,737.32890625) translate(177.0732421875 185.4533203125)"/></g><path d="M1098.5 697.5h-61.12" stroke="#333" fill="none"/><path d="M1099 697.98h-.5V697h.5z" stroke="#333" stroke-width=".05" fill="#333"/><path d="M1022.62 697.5l14.26-4.63v9.26z" stroke="#333" fill="#333"/><path d="M1538.5 762.5H1512a12 12 0 0 1-12-12v-41a12 12 0 0 0-12-12h-10.62" stroke="#333" fill="none"/><path d="M1539 762.98h-.5V762h.5z" stroke="#333" stroke-width=".05" fill="#333"/><path d="M1462.62 697.5l14.26-4.63v9.26z" stroke="#333" fill="#333"/><defs><path d="M681 22C323 22 94-145 85-462h297c10 151 131 226 296 226 163 0 271-77 271-190 0-102-95-149-257-189l-164-41c-252-61-403-188-403-405 0-269 236-449 560-449 330 0 546 183 551 445H941c-11-119-106-188-259-188-156 0-244 72-244 172-3 156 226 185 373 221 250 61 445 186 445 436 0 271-213 446-575 446" id="ap"/><path d="M128 418v-1536h295v188h14c41-89 129-202 319-202 248 0 453 193 453 575 0 372-197 576-455 576-183 0-275-108-317-198h-9v597H128zm534-640c156 0 240-139 240-336 0-196-83-334-240-334-154 0-241 131-241 334 0 202 88 336 241 336" id="aq"/><path d="M128 0v-1118h300V0H128zm150-1264c-91 0-165-68-165-154 0-85 74-154 165-154 90 0 165 69 165 154 0 86-75 154-165 154" id="ar"/><path d="M633 22C291 22 81-200 81-553c0-345 210-579 537-579 292 0 525 185 525 567v84H378c7 183 109 277 260 277 105 0 184-46 216-132l272 51C1071-99 893 22 633 22zM380-669h474c-15-146-94-237-233-237-143 0-229 99-241 237" id="as"/><path d="M428-1490V0H128v-1490h300" id="at"/><path d="M128 0v-1118h290v195h12c54-169 184-238 367-200v268c-27-8-86-15-130-15-138 0-239 95-239 234V0H128" id="au"/><g id="a"><use transform="matrix(0.0087890625,0,0,0.0087890625,0,0)" xlink:href="#ap"/><use transform="matrix(0.0087890625,0,0,0.0087890625,11.7861328125,0)" xlink:href="#aq"/><use transform="matrix(0.0087890625,0,0,0.0087890625,23.1328125,0)" xlink:href="#ar"/><use transform="matrix(0.0087890625,0,0,0.0087890625,28.0107421875,0)" xlink:href="#as"/><use transform="matrix(0.0087890625,0,0,0.0087890625,38.7333984375,0)" xlink:href="#at"/><use transform="matrix(0.0087890625,0,0,0.0087890625,43.611328125,0)" xlink:href="#as"/><use transform="matrix(0.0087890625,0,0,0.0087890625,54.333984375,0)" xlink:href="#au"/></g><path d="M798-719v166H144v-166h654" id="av"/><path d="M338-670V0H158v-1118h173l1 207c72-158 192-221 342-221 226 0 378 139 378 422V0H872v-695c0-172-96-275-252-275-161 0-282 109-282 300" id="aw"/><path d="M471 26C259 26 90-98 90-318c0-256 228-303 435-329 202-27 287-16 287-108 0-139-79-219-234-219-161 0-248 86-283 164l-173-57c86-203 278-265 451-265 150 0 419 46 419 395V0H815v-152h-12C765-73 660 26 471 26zm31-159c199 0 310-134 310-271v-155c-30 35-226 55-295 64-131 17-246 59-246 186 0 116 97 176 231 176" id="ax"/><path d="M158 0v-1118h175l1 205c55-151 181-225 313-225 147 0 245 90 285 228 53-141 190-228 352-228 194 0 352 125 352 384V0h-181v-749c0-161-105-225-225-225-151 0-243 103-243 244V0H807v-767c0-124-93-207-219-207-131 0-250 92-250 270V0H158" id="ay"/><path d="M628 24c-324 0-524-230-524-574 0-343 198-582 503-582 237 0 487 146 487 559v75H286c9 234 145 362 343 362 132 0 231-58 273-172l174 48C1024-91 857 24 628 24zM287-650h624c-17-190-120-322-304-322-192 0-309 151-320 322" id="az"/><path d="M295 13c-75 0-135-60-135-135s60-135 135-135 135 60 135 135S370 13 295 13zm0-809c-75 0-135-60-135-135s60-135 135-135 135 60 135 135-60 135-135 135" id="aA"/><g id="b"><use transform="matrix(0.0087890625,0,0,0.0087890625,0,0)" xlink:href="#av"/><use transform="matrix(0.0087890625,0,0,0.0087890625,8.279296875,0)" xlink:href="#aw"/><use transform="matrix(0.0087890625,0,0,0.0087890625,18.9140625,0)" xlink:href="#ax"/><use transform="matrix(0.0087890625,0,0,0.0087890625,29.021484375,0)" xlink:href="#ay"/><use transform="matrix(0.0087890625,0,0,0.0087890625,44.7890625,0)" xlink:href="#az"/><use transform="matrix(0.0087890625,0,0,0.0087890625,55.283203125,0)" xlink:href="#aA"/></g><path d="M657 26c-323 0-524-166-541-416h195c15 169 171 246 346 246 202 0 356-106 356-265 5-203-294-238-475-293-239-73-380-191-380-389 0-252 224-419 512-419 294 0 499 171 508 396H992c-17-145-151-228-328-228-193 0-321 102-321 242 0 156 175 211 284 241l149 41c160 44 422 134 422 412 0 244-197 432-541 432" id="aB"/><path d="M598-1118v154H368v674c0 100 37 144 132 144 23 0 62-6 92-12L629-6c-37 13-88 20-134 20-193 0-307-107-307-290v-688H20v-154h168v-266h180v266h230" id="aC"/><path d="M158 0v-1118h174v172h12c41-113 157-188 290-188 26 0 70 2 91 3v181c-11-2-60-10-108-10-161 0-279 109-279 260V0H158" id="aD"/><path d="M158 0v-1118h180V0H158zm91-1301c-68 0-125-53-125-119s57-119 125-119c69 0 126 53 126 119s-57 119-126 119" id="aE"/><path d="M611 442c-248 0-391-105-460-228l146-94c47 65 117 165 314 165 178 0 307-82 307-266v-224h-17C863-141 792-18 576-18c-268 0-472-195-472-546 0-346 197-568 476-568 216 0 288 133 326 193h17v-179h175V29c0 289-215 413-487 413zm-5-620c203 0 314-146 314-390 0-237-108-403-314-403-213 0-319 180-319 403 0 230 109 390 319 390" id="aF"/><g id="c"><use transform="matrix(0.0087890625,0,0,0.0087890625,0,0)" xlink:href="#aB"/><use transform="matrix(0.0087890625,0,0,0.0087890625,11.548828125,0)" xlink:href="#aC"/><use transform="matrix(0.0087890625,0,0,0.0087890625,17.4375,0)" xlink:href="#aD"/><use transform="matrix(0.0087890625,0,0,0.0087890625,24.4951171875,0)" xlink:href="#aE"/><use transform="matrix(0.0087890625,0,0,0.0087890625,28.8544921875,0)" xlink:href="#aw"/><use transform="matrix(0.0087890625,0,0,0.0087890625,39.4892578125,0)" xlink:href="#aF"/></g><path d="M157-1118h181V80c1 225-123 350-364 338V252c126 9 184-48 183-172v-1198zm91-183c-68 0-125-53-125-119s57-119 125-119c69 0 126 53 126 119s-57 119-126 119" id="aG"/><path d="M613 24c-304 0-509-231-509-576 0-350 205-580 509-580 305 0 511 230 511 580 0 345-206 576-511 576zm0-161c226 0 329-195 329-415 0-222-103-419-329-419-223 0-326 196-326 419 0 220 103 415 326 415" id="aH"/><path d="M538 24C308 24 148-78 108-271l171-41c32 123 123 178 257 178 156 0 256-77 256-169 0-77-54-128-164-154l-186-44c-203-48-300-148-300-305 0-192 176-326 414-326 230 0 351 112 402 269l-163 42c-31-80-94-158-238-158-133 0-233 69-233 162 0 83 57 129 188 160l169 40c203 48 298 149 298 302 0 196-179 339-441 339" id="aI"/><g id="d"><use transform="matrix(0.0087890625,0,0,0.0087890625,0,0)" xlink:href="#av"/><use transform="matrix(0.0087890625,0,0,0.0087890625,8.279296875,0)" xlink:href="#aG"/><use transform="matrix(0.0087890625,0,0,0.0087890625,12.638671875,0)" xlink:href="#az"/><use transform="matrix(0.0087890625,0,0,0.0087890625,23.1328125,0)" xlink:href="#aC"/><use transform="matrix(0.0087890625,0,0,0.0087890625,28.845703125,0)" xlink:href="#aH"/><use transform="matrix(0.0087890625,0,0,0.0087890625,39.638671875,0)" xlink:href="#aw"/><use transform="matrix(0.0087890625,0,0,0.0087890625,50.2734375,0)" xlink:href="#aI"/><use transform="matrix(0.0087890625,0,0,0.0087890625,59.7744140625,0)" xlink:href="#aA"/></g><g id="e"><use transform="matrix(0.0087890625,0,0,0.0087890625,0,0)" xlink:href="#aE"/><use transform="matrix(0.0087890625,0,0,0.0087890625,4.359375,0)" xlink:href="#aw"/><use transform="matrix(0.0087890625,0,0,0.0087890625,14.994140625,0)" xlink:href="#aC"/></g><path d="M593-100v-404H195v-159h398v-403h169v403h398v159H762v404H593" id="aJ"/><path d="M158 418v-1536h174v179h20c37-59 106-193 324-193 279 0 474 222 474 576 0 356-194 580-473 580-213 0-288-135-325-197h-14v591H158zm492-555c209 0 317-186 317-421 0-232-105-413-317-413-206 0-314 166-314 413 0 249 111 421 314 421" id="aK"/><path d="M338-1490V0H158v-1490h180" id="aL"/><path d="M218-607c0-325 108-727 258-974h175c-155 315-250 682-250 974 0 265 78 531 250 886H476C306-10 218-315 218-607" id="aM"/><g id="f"><use transform="matrix(0.0087890625,0,0,0.0087890625,0,0)" xlink:href="#aJ"/><use transform="matrix(0.0087890625,0,0,0.0087890625,11.9091796875,0)" xlink:href="#aB"/><use transform="matrix(0.0087890625,0,0,0.0087890625,23.4580078125,0)" xlink:href="#aK"/><use transform="matrix(0.0087890625,0,0,0.0087890625,34.4794921875,0)" xlink:href="#aE"/><use transform="matrix(0.0087890625,0,0,0.0087890625,38.8388671875,0)" xlink:href="#az"/><use transform="matrix(0.0087890625,0,0,0.0087890625,49.3330078125,0)" xlink:href="#aL"/><use transform="matrix(0.0087890625,0,0,0.0087890625,53.6923828125,0)" xlink:href="#az"/><use transform="matrix(0.0087890625,0,0,0.0087890625,64.1865234375,0)" xlink:href="#aD"/><use transform="matrix(0.0087890625,0,0,0.0087890625,70.962890625,0)" xlink:href="#aM"/><use transform="matrix(0.0087890625,0,0,0.0087890625,77.5283203125,0)" xlink:href="#aw"/><use transform="matrix(0.0087890625,0,0,0.0087890625,88.1630859375,0)" xlink:href="#ax"/><use transform="matrix(0.0087890625,0,0,0.0087890625,98.2705078125,0)" xlink:href="#ay"/><use transform="matrix(0.0087890625,0,0,0.0087890625,114.0380859375,0)" xlink:href="#az"/><use transform="matrix(0.0087890625,0,0,0.0087890625,124.5322265625,0)" xlink:href="#aA"/></g><path d="M128 359l88-567h206L266 359H128" id="aN"/><g id="g"><use transform="matrix(0.0087890625,0,0,0.0087890625,0,0)" xlink:href="#aB"/><use transform="matrix(0.0087890625,0,0,0.0087890625,11.548828125,0)" xlink:href="#aC"/><use transform="matrix(0.0087890625,0,0,0.0087890625,17.4375,0)" xlink:href="#aD"/><use transform="matrix(0.0087890625,0,0,0.0087890625,24.4951171875,0)" xlink:href="#aE"/><use transform="matrix(0.0087890625,0,0,0.0087890625,28.8544921875,0)" xlink:href="#aw"/><use transform="matrix(0.0087890625,0,0,0.0087890625,39.4892578125,0)" xlink:href="#aF"/><use transform="matrix(0.0087890625,0,0,0.0087890625,50.5283203125,0)" xlink:href="#aN"/></g><g id="h"><use transform="matrix(0.0087890625,0,0,0.0087890625,0,0)" xlink:href="#aE"/><use transform="matrix(0.0087890625,0,0,0.0087890625,4.359375,0)" xlink:href="#aw"/><use transform="matrix(0.0087890625,0,0,0.0087890625,14.994140625,0)" xlink:href="#aC"/><use transform="matrix(0.0087890625,0,0,0.0087890625,20.8828125,0)" xlink:href="#aA"/></g><path d="M545 20c-263 0-445-160-445-446v-80h190v80c0 182 102 279 255 279 152 0 254-97 254-279v-1064h190v1064c0 286-181 446-444 446" id="aO"/><path d="M96 279C273-86 346-350 346-607c0-292-95-659-250-974h175c150 246 258 650 258 974 0 297-91 602-258 886H96" id="aP"/><g id="i"><use transform="matrix(0.0087890625,0,0,0.0087890625,0,0)" xlink:href="#aI"/><use transform="matrix(0.0087890625,0,0,0.0087890625,9.5009765625,0)" xlink:href="#aC"/><use transform="matrix(0.0087890625,0,0,0.0087890625,15.4775390625,0)" xlink:href="#ax"/><use transform="matrix(0.0087890625,0,0,0.0087890625,25.5849609375,0)" xlink:href="#aD"/><use transform="matrix(0.0087890625,0,0,0.0087890625,32.642578125,0)" xlink:href="#aC"/><use transform="matrix(0.0087890625,0,0,0.0087890625,38.53125,0)" xlink:href="#aO"/><use transform="matrix(0.0087890625,0,0,0.0087890625,48.8056640625,0)" xlink:href="#az"/><use transform="matrix(0.0087890625,0,0,0.0087890625,59.2998046875,0)" xlink:href="#aC"/><use transform="matrix(0.0087890625,0,0,0.0087890625,65.0126953125,0)" xlink:href="#aH"/><use transform="matrix(0.0087890625,0,0,0.0087890625,75.8056640625,0)" xlink:href="#aw"/><use transform="matrix(0.0087890625,0,0,0.0087890625,86.4404296875,0)" xlink:href="#aI"/><use transform="matrix(0.0087890625,0,0,0.0087890625,95.94140625,0)" xlink:href="#aP"/></g><path d="M180 0v-1490h224l606 953c40 63 108 177 176 312-27-437-7-821-13-1265h190V0h-226C860-448 622-778 356-1262c27 476 11 792 15 1262H180" id="aQ"/><g id="j"><use transform="matrix(0.0087890625,0,0,0.0087890625,0,0)" xlink:href="#aJ"/><use transform="matrix(0.0087890625,0,0,0.0087890625,11.9091796875,0)" xlink:href="#aF"/><use transform="matrix(0.0087890625,0,0,0.0087890625,22.9482421875,0)" xlink:href="#az"/><use transform="matrix(0.0087890625,0,0,0.0087890625,33.4423828125,0)" xlink:href="#aC"/><use transform="matrix(0.0087890625,0,0,0.0087890625,39.3310546875,0)" xlink:href="#aQ"/><use transform="matrix(0.0087890625,0,0,0.0087890625,52.892578125,0)" xlink:href="#ax"/><use transform="matrix(0.0087890625,0,0,0.0087890625,63,0)" xlink:href="#ay"/><use transform="matrix(0.0087890625,0,0,0.0087890625,78.767578125,0)" xlink:href="#az"/><use transform="matrix(0.0087890625,0,0,0.0087890625,89.26171875,0)" xlink:href="#aM"/><use transform="matrix(0.0087890625,0,0,0.0087890625,95.8271484375,0)" xlink:href="#aP"/><use transform="matrix(0.0087890625,0,0,0.0087890625,102.392578125,0)" xlink:href="#aA"/></g><g id="k"><use transform="matrix(0.0087890625,0,0,0.0087890625,0,0)" xlink:href="#aB"/><use transform="matrix(0.0087890625,0,0,0.0087890625,11.548828125,0)" xlink:href="#aC"/><use transform="matrix(0.0087890625,0,0,0.0087890625,17.4375,0)" xlink:href="#aD"/><use transform="matrix(0.0087890625,0,0,0.0087890625,24.4951171875,0)" xlink:href="#aE"/><use transform="matrix(0.0087890625,0,0,0.0087890625,28.8544921875,0)" xlink:href="#aw"/><use transform="matrix(0.0087890625,0,0,0.0087890625,39.4892578125,0)" xlink:href="#aF"/></g><g id="l"><use transform="matrix(0.0087890625,0,0,0.0087890625,0,0)" xlink:href="#aJ"/><use transform="matrix(0.0087890625,0,0,0.0087890625,11.9091796875,0)" xlink:href="#aF"/><use transform="matrix(0.0087890625,0,0,0.0087890625,22.9482421875,0)" xlink:href="#az"/><use transform="matrix(0.0087890625,0,0,0.0087890625,33.4423828125,0)" xlink:href="#aC"/><use transform="matrix(0.0087890625,0,0,0.0087890625,39.3310546875,0)" xlink:href="#aO"/><use transform="matrix(0.0087890625,0,0,0.0087890625,49.60546875,0)" xlink:href="#az"/><use transform="matrix(0.0087890625,0,0,0.0087890625,60.099609375,0)" xlink:href="#aC"/><use transform="matrix(0.0087890625,0,0,0.0087890625,65.8125,0)" xlink:href="#aH"/><use transform="matrix(0.0087890625,0,0,0.0087890625,76.60546875,0)" xlink:href="#aw"/><use transform="matrix(0.0087890625,0,0,0.0087890625,87.240234375,0)" xlink:href="#aI"/><use transform="matrix(0.0087890625,0,0,0.0087890625,96.7412109375,0)" xlink:href="#aM"/><use transform="matrix(0.0087890625,0,0,0.0087890625,103.306640625,0)" xlink:href="#aP"/><use transform="matrix(0.0087890625,0,0,0.0087890625,109.8720703125,0)" xlink:href="#aA"/></g><g id="m"><use transform="matrix(0.0087890625,0,0,0.0087890625,0,0)" xlink:href="#aE"/><use transform="matrix(0.0087890625,0,0,0.0087890625,4.359375,0)" xlink:href="#aw"/><use transform="matrix(0.0087890625,0,0,0.0087890625,14.994140625,0)" xlink:href="#aC"/></g><path d="M577 24c-279 0-473-224-473-580 0-354 195-576 474-576 218 0 287 134 324 193h14v-551h180V0H922v-173h-20C865-111 790 24 577 24zm27-161c203 0 314-172 314-421 0-247-108-413-314-413-212 0-317 181-317 413 0 235 108 421 317 421" id="aR"/><path d="M677 24c-213 0-288-135-325-197h-20V0H158v-1490h180v551h14c37-59 106-193 324-193 279 0 474 222 474 576 0 356-194 580-473 580zm-27-161c209 0 317-186 317-421 0-232-105-413-317-413-206 0-314 166-314 413 0 249 111 421 314 421" id="aS"/><g id="n"><use transform="matrix(0.0087890625,0,0,0.0087890625,0,0)" xlink:href="#aJ"/><use transform="matrix(0.0087890625,0,0,0.0087890625,11.9091796875,0)" xlink:href="#ax"/><use transform="matrix(0.0087890625,0,0,0.0087890625,22.0166015625,0)" xlink:href="#aR"/><use transform="matrix(0.0087890625,0,0,0.0087890625,33.0380859375,0)" xlink:href="#aR"/><use transform="matrix(0.0087890625,0,0,0.0087890625,44.0595703125,0)" xlink:href="#aO"/><use transform="matrix(0.0087890625,0,0,0.0087890625,54.333984375,0)" xlink:href="#az"/><use transform="matrix(0.0087890625,0,0,0.0087890625,64.828125,0)" xlink:href="#aC"/><use transform="matrix(0.0087890625,0,0,0.0087890625,70.541015625,0)" xlink:href="#aH"/><use transform="matrix(0.0087890625,0,0,0.0087890625,81.333984375,0)" xlink:href="#aw"/><use transform="matrix(0.0087890625,0,0,0.0087890625,91.96875,0)" xlink:href="#aI"/><use transform="matrix(0.0087890625,0,0,0.0087890625,101.4697265625,0)" xlink:href="#aM"/><use transform="matrix(0.0087890625,0,0,0.0087890625,108.03515625,0)" xlink:href="#aS"/><use transform="matrix(0.0087890625,0,0,0.0087890625,119.056640625,0)" xlink:href="#az"/><use transform="matrix(0.0087890625,0,0,0.0087890625,129.55078125,0)" xlink:href="#aC"/><use transform="matrix(0.0087890625,0,0,0.0087890625,135.439453125,0)" xlink:href="#aD"/><use transform="matrix(0.0087890625,0,0,0.0087890625,142.2158203125,0)" xlink:href="#ax"/><use transform="matrix(0.0087890625,0,0,0.0087890625,152.3232421875,0)" xlink:href="#aF"/><use transform="matrix(0.0087890625,0,0,0.0087890625,163.3623046875,0)" xlink:href="#aA"/></g><g id="o"><use transform="matrix(0.0087890625,0,0,0.0087890625,0,0)" xlink:href="#aE"/><use transform="matrix(0.0087890625,0,0,0.0087890625,4.359375,0)" xlink:href="#aw"/><use transform="matrix(0.0087890625,0,0,0.0087890625,14.994140625,0)" xlink:href="#aC"/><use transform="matrix(0.0087890625,0,0,0.0087890625,20.8828125,0)" xlink:href="#aP"/></g><path d="M481 0L54-1118h197c107 314 236 620 325 951 87-331 217-637 324-951h197L670 0H481" id="aT"/><g id="p"><use transform="matrix(0.0087890625,0,0,0.0087890625,0,0)" xlink:href="#aJ"/><use transform="matrix(0.0087890625,0,0,0.0087890625,11.9091796875,0)" xlink:href="#aD"/><use transform="matrix(0.0087890625,0,0,0.0087890625,18.38671875,0)" xlink:href="#az"/><use transform="matrix(0.0087890625,0,0,0.0087890625,28.880859375,0)" xlink:href="#ay"/><use transform="matrix(0.0087890625,0,0,0.0087890625,44.6484375,0)" xlink:href="#aH"/><use transform="matrix(0.0087890625,0,0,0.0087890625,55.08984375,0)" xlink:href="#aT"/><use transform="matrix(0.0087890625,0,0,0.0087890625,64.8544921875,0)" xlink:href="#az"/><use transform="matrix(0.0087890625,0,0,0.0087890625,75.3486328125,0)" xlink:href="#aO"/><use transform="matrix(0.0087890625,0,0,0.0087890625,85.623046875,0)" xlink:href="#az"/><use transform="matrix(0.0087890625,0,0,0.0087890625,96.1171875,0)" xlink:href="#aC"/><use transform="matrix(0.0087890625,0,0,0.0087890625,101.830078125,0)" xlink:href="#aH"/><use transform="matrix(0.0087890625,0,0,0.0087890625,112.623046875,0)" xlink:href="#aw"/><use transform="matrix(0.0087890625,0,0,0.0087890625,123.2578125,0)" xlink:href="#aI"/><use transform="matrix(0.0087890625,0,0,0.0087890625,132.7587890625,0)" xlink:href="#aM"/><use transform="matrix(0.0087890625,0,0,0.0087890625,139.32421875,0)" xlink:href="#aS"/><use transform="matrix(0.0087890625,0,0,0.0087890625,150.345703125,0)" xlink:href="#az"/><use transform="matrix(0.0087890625,0,0,0.0087890625,160.83984375,0)" xlink:href="#aC"/><use transform="matrix(0.0087890625,0,0,0.0087890625,166.728515625,0)" xlink:href="#aD"/><use transform="matrix(0.0087890625,0,0,0.0087890625,173.5048828125,0)" xlink:href="#ax"/><use transform="matrix(0.0087890625,0,0,0.0087890625,183.6123046875,0)" xlink:href="#aF"/><use transform="matrix(0.0087890625,0,0,0.0087890625,194.6513671875,0)" xlink:href="#aA"/></g><g id="q"><use transform="matrix(0.0087890625,0,0,0.0087890625,0,0)" xlink:href="#aE"/><use transform="matrix(0.0087890625,0,0,0.0087890625,4.359375,0)" xlink:href="#aw"/><use transform="matrix(0.0087890625,0,0,0.0087890625,14.994140625,0)" xlink:href="#aC"/><use transform="matrix(0.0087890625,0,0,0.0087890625,20.8828125,0)" xlink:href="#aP"/></g><path d="M166-471v-247l1019-454v289L492-601v13l693 282v287" id="aU"/><path d="M628 22C291 22 81-210 81-554c0-346 210-578 547-578 265 0 455 142 497 372l-279 52c-25-116-99-188-215-188-160 0-244 139-244 341 0 200 84 341 244 341 116 0 193-74 217-195l279 51C1085-123 896 22 628 22" id="aV"/><path d="M428-647V0H128v-1490h294v586c65-146 175-228 341-228 232 0 385 159 385 421V0H847v-659c0-139-76-222-202-222-128 0-217 86-217 234" id="aW"/><path d="M428-647V0H128v-1118h283l4 231c63-156 176-245 348-245 232 0 384 159 384 421V0H847v-659c0-139-76-222-202-222-128 0-217 86-217 234" id="aX"/><path d="M683-1118v229H474v562c0 71 29 104 102 104 23 0 73-7 95-13l43 225C647 9 580 16 520 16 296 16 174-96 174-301v-588H20v-229h154v-266h300v266h209" id="aY"/><path d="M572 22C302 22 117-98 78-306l279-48c29 105 101 156 224 156 114 0 185-48 185-115 0-118-228-130-337-155-215-49-322-150-322-317 0-215 187-347 470-347 265 0 424 116 466 298l-266 47c-24-76-87-130-196-130-98 0-174 46-174 113 0 56 38 95 144 117l201 40c216 44 320 143 320 302 0 220-207 367-500 367" id="aZ"/><path d="M1224-471L205-19v-287l694-281v-14L205-883v-289l1019 454v247" id="ba"/><g id="r"><use transform="matrix(0.0087890625,0,0,0.0087890625,0,0)" xlink:href="#aU"/><use transform="matrix(0.0087890625,0,0,0.0087890625,12.216796875,0)" xlink:href="#aU"/><use transform="matrix(0.0087890625,0,0,0.0087890625,24.43359375,0)" xlink:href="#ap"/><use transform="matrix(0.0087890625,0,0,0.0087890625,36.2197265625,0)" xlink:href="#aV"/><use transform="matrix(0.0087890625,0,0,0.0087890625,46.810546875,0)" xlink:href="#aW"/><use transform="matrix(0.0087890625,0,0,0.0087890625,58.0166015625,0)" xlink:href="#aX"/><use transform="matrix(0.0087890625,0,0,0.0087890625,69.22265625,0)" xlink:href="#ar"/><use transform="matrix(0.0087890625,0,0,0.0087890625,74.1005859375,0)" xlink:href="#aY"/><use transform="matrix(0.0087890625,0,0,0.0087890625,80.0595703125,0)" xlink:href="#aY"/><use transform="matrix(0.0087890625,0,0,0.0087890625,86.51953125,0)" xlink:href="#aZ"/><use transform="matrix(0.0087890625,0,0,0.0087890625,96.6005859375,0)" xlink:href="#aY"/><use transform="matrix(0.0087890625,0,0,0.0087890625,103.0166015625,0)" xlink:href="#as"/><use transform="matrix(0.0087890625,0,0,0.0087890625,113.7392578125,0)" xlink:href="#at"/><use transform="matrix(0.0087890625,0,0,0.0087890625,118.6171875,0)" xlink:href="#at"/><use transform="matrix(0.0087890625,0,0,0.0087890625,123.4951171875,0)" xlink:href="#as"/><use transform="matrix(0.0087890625,0,0,0.0087890625,134.2177734375,0)" xlink:href="#ba"/><use transform="matrix(0.0087890625,0,0,0.0087890625,146.4345703125,0)" xlink:href="#ba"/></g><path d="M786 20C389 20 94-260 94-744c0-487 299-766 692-766 339 0 597 194 641 529h-309c-28-162-156-258-326-258-233 0-388 179-388 495 0 323 157 493 387 493 170 0 298-97 328-259h309c-34 277-266 530-642 530" id="bb"/><path d="M440 22C227 22 68-92 68-313c0-250 202-322 422-343 195-21 271-24 271-105 0-95-63-149-175-149-116 0-187 57-211 129l-275-46c57-194 237-305 487-305 240 0 474 108 474 379V0H777v-155h-10C713-51 605 22 440 22zm85-211c140 0 238-93 238-211v-121c-37 26-156 42-222 51-111 16-185 59-185 149 0 87 70 132 169 132" id="bc"/><path d="M628 22C291 22 81-210 81-554c0-346 210-578 547-578 336 0 547 232 547 578 0 344-211 576-547 576zm0-236c160 0 242-146 242-341 0-197-82-341-242-341S387-753 387-555c0 195 81 341 241 341" id="bd"/><path d="M135 0v-1490h591c327 0 492 160 492 383 0 177-115 286-268 320v15c168 8 326 140 326 361 0 236-176 411-512 411H135zm305-251h264c179 0 258-76 258-189 0-125-97-215-250-215H440v404zm0-613h241c131 0 228-74 228-194 0-109-79-183-222-183H440v377" id="be"/><g id="s"><use transform="matrix(0.0087890625,0,0,0.0087890625,0,0)" xlink:href="#bb"/><use transform="matrix(0.0087890625,0,0,0.0087890625,13.3154296875,0)" xlink:href="#bc"/><use transform="matrix(0.0087890625,0,0,0.0087890625,23.765625,0)" xlink:href="#aZ"/><use transform="matrix(0.0087890625,0,0,0.0087890625,33.8466796875,0)" xlink:href="#ar"/><use transform="matrix(0.0087890625,0,0,0.0087890625,38.724609375,0)" xlink:href="#aX"/><use transform="matrix(0.0087890625,0,0,0.0087890625,49.9306640625,0)" xlink:href="#bd"/><use transform="matrix(0.0087890625,0,0,0.0087890625,60.9697265625,0)" xlink:href="#aZ"/><use transform="matrix(0.0087890625,0,0,0.0087890625,71.05078125,0)" xlink:href="#aq"/><use transform="matrix(0.0087890625,0,0,0.0087890625,82.3974609375,0)" xlink:href="#ar"/><use transform="matrix(0.0087890625,0,0,0.0087890625,87.275390625,0)" xlink:href="#as"/><use transform="matrix(0.0087890625,0,0,0.0087890625,97.998046875,0)" xlink:href="#at"/><use transform="matrix(0.0087890625,0,0,0.0087890625,102.8759765625,0)" xlink:href="#be"/><use transform="matrix(0.0087890625,0,0,0.0087890625,114.78515625,0)" xlink:href="#bc"/><use transform="matrix(0.0087890625,0,0,0.0087890625,125.2353515625,0)" xlink:href="#aZ"/><use transform="matrix(0.0087890625,0,0,0.0087890625,135.31640625,0)" xlink:href="#ar"/><use transform="matrix(0.0087890625,0,0,0.0087890625,140.1943359375,0)" xlink:href="#aZ"/></g><path d="M783 20c-382 0-661-292-661-764 0-473 279-766 661-766 302 0 548 182 601 489h-190c-42-204-217-313-411-313-268 0-476 208-476 590 0 381 209 588 476 588 195 0 369-110 411-313h190c-52 303-296 489-601 489" id="bf"/><path d="M180 0v-1490h528c311 0 458 177 458 395 0 191-114 278-244 313v14c139 9 302 137 302 371 0 225-148 397-499 397H180zm190-168h350c232 0 321-102 321-231 0-149-120-277-311-277H370v508zm0-668h328c160 0 286-101 286-255 0-129-87-231-280-231H370v486" id="bg"/><g id="t"><use transform="matrix(0.0087890625,0,0,0.0087890625,0,0)" xlink:href="#aJ"/><use transform="matrix(0.0087890625,0,0,0.0087890625,11.9091796875,0)" xlink:href="#bf"/><use transform="matrix(0.0087890625,0,0,0.0087890625,25.0576171875,0)" xlink:href="#ax"/><use transform="matrix(0.0087890625,0,0,0.0087890625,35.1650390625,0)" xlink:href="#aI"/><use transform="matrix(0.0087890625,0,0,0.0087890625,44.666015625,0)" xlink:href="#aE"/><use transform="matrix(0.0087890625,0,0,0.0087890625,49.025390625,0)" xlink:href="#aw"/><use transform="matrix(0.0087890625,0,0,0.0087890625,59.66015625,0)" xlink:href="#aH"/><use transform="matrix(0.0087890625,0,0,0.0087890625,70.453125,0)" xlink:href="#aI"/><use transform="matrix(0.0087890625,0,0,0.0087890625,79.9541015625,0)" xlink:href="#aK"/><use transform="matrix(0.0087890625,0,0,0.0087890625,90.9755859375,0)" xlink:href="#aE"/><use transform="matrix(0.0087890625,0,0,0.0087890625,95.3349609375,0)" xlink:href="#az"/><use transform="matrix(0.0087890625,0,0,0.0087890625,105.8291015625,0)" xlink:href="#aL"/><use transform="matrix(0.0087890625,0,0,0.0087890625,110.1884765625,0)" xlink:href="#bg"/><use transform="matrix(0.0087890625,0,0,0.0087890625,121.9658203125,0)" xlink:href="#ax"/><use transform="matrix(0.0087890625,0,0,0.0087890625,132.0732421875,0)" xlink:href="#aI"/><use transform="matrix(0.0087890625,0,0,0.0087890625,141.57421875,0)" xlink:href="#aE"/><use transform="matrix(0.0087890625,0,0,0.0087890625,145.93359375,0)" xlink:href="#aI"/><use transform="matrix(0.0087890625,0,0,0.0087890625,155.4345703125,0)" xlink:href="#aM"/><use transform="matrix(0.0087890625,0,0,0.0087890625,162,0)" xlink:href="#aw"/><use transform="matrix(0.0087890625,0,0,0.0087890625,172.634765625,0)" xlink:href="#ax"/><use transform="matrix(0.0087890625,0,0,0.0087890625,182.7421875,0)" xlink:href="#ay"/><use transform="matrix(0.0087890625,0,0,0.0087890625,198.509765625,0)" xlink:href="#az"/><use transform="matrix(0.0087890625,0,0,0.0087890625,209.00390625,0)" xlink:href="#aA"/></g><g id="u"><use transform="matrix(0.0087890625,0,0,0.0087890625,0,0)" xlink:href="#aB"/><use transform="matrix(0.0087890625,0,0,0.0087890625,11.548828125,0)" xlink:href="#aC"/><use transform="matrix(0.0087890625,0,0,0.0087890625,17.4375,0)" xlink:href="#aD"/><use transform="matrix(0.0087890625,0,0,0.0087890625,24.4951171875,0)" xlink:href="#aE"/><use transform="matrix(0.0087890625,0,0,0.0087890625,28.8544921875,0)" xlink:href="#aw"/><use transform="matrix(0.0087890625,0,0,0.0087890625,39.4892578125,0)" xlink:href="#aF"/><use transform="matrix(0.0087890625,0,0,0.0087890625,50.5283203125,0)" xlink:href="#aN"/></g><g id="v"><use transform="matrix(0.0087890625,0,0,0.0087890625,0,0)" xlink:href="#aI"/><use transform="matrix(0.0087890625,0,0,0.0087890625,9.5009765625,0)" xlink:href="#aK"/><use transform="matrix(0.0087890625,0,0,0.0087890625,20.5224609375,0)" xlink:href="#aE"/><use transform="matrix(0.0087890625,0,0,0.0087890625,24.8818359375,0)" xlink:href="#az"/><use transform="matrix(0.0087890625,0,0,0.0087890625,35.3759765625,0)" xlink:href="#aL"/><use transform="matrix(0.0087890625,0,0,0.0087890625,39.7353515625,0)" xlink:href="#az"/><use transform="matrix(0.0087890625,0,0,0.0087890625,50.2294921875,0)" xlink:href="#aD"/><use transform="matrix(0.0087890625,0,0,0.0087890625,57.005859375,0)" xlink:href="#aA"/></g><g id="w"><use transform="matrix(0.0087890625,0,0,0.0087890625,0,0)" xlink:href="#aB"/><use transform="matrix(0.0087890625,0,0,0.0087890625,11.548828125,0)" xlink:href="#aK"/><use transform="matrix(0.0087890625,0,0,0.0087890625,22.5703125,0)" xlink:href="#aE"/><use transform="matrix(0.0087890625,0,0,0.0087890625,26.9296875,0)" xlink:href="#az"/><use transform="matrix(0.0087890625,0,0,0.0087890625,37.423828125,0)" xlink:href="#aL"/><use transform="matrix(0.0087890625,0,0,0.0087890625,41.783203125,0)" xlink:href="#az"/><use transform="matrix(0.0087890625,0,0,0.0087890625,52.27734375,0)" xlink:href="#aD"/><use transform="matrix(0.0087890625,0,0,0.0087890625,59.0537109375,0)" xlink:href="#aP"/></g><path d="M517-100l66-397H185l28-172h398l66-397h169l-66 397h398l-28 172H752l-66 397H517" id="bh"/><path d="M535 24C259 24 94-144 94-427c0-392 272-715 610-715 216 0 356 119 356 305 0 244-237 344-790 350-18 199 49 349 276 352 142 0 260-66 317-173l167 47C947-85 756 24 535 24zM294-623c447-4 586-57 586-218 0-85-78-141-194-141-220 0-342 177-392 359" id="bi"/><path d="M66 0l185-1118h174l-28 172h12c78-136 219-209 411-185l-30 181c-211-47-398 67-428 250L246 0H66" id="bj"/><path d="M451 24C217 22 71-78 61-277l174-29c11 123 90 172 219 172 161 0 280-83 297-181 11-71-30-117-135-143l-179-44c-195-48-280-153-253-316 31-186 223-314 455-314 233 4 337 107 366 275l-165 30c-18-80-65-152-204-152-138 0-256 75-272 174-13 77 32 118 158 149l162 40c195 48 278 154 252 313C904-113 708 24 451 24" id="bk"/><path d="M691-1118l-25 154H437L325-290c-17 103 16 144 108 144 23 0 63-6 94-12L538-6c-36 12-87 20-136 20-196 0-290-109-260-290l114-688H88l25-154h169l44-266h180l-44 266h229" id="bl"/><path d="M87 0l247-1490h218l448 953c25 54 80 176 129 327 11-149 33-280 47-366l151-914h190L1270 0h-219C841-464 670-765 473-1275 414-753 352-475 278 0H87" id="bm"/><path d="M481 24C202 24 45-202 104-557s293-575 571-575c216 0 263 132 291 193h15l29-179h181L1006 0H831l28-173h-21C788-107 693 24 481 24zm56-161c204 0 342-174 383-422s-41-412-245-412c-215 0-350 183-388 412-39 235 39 422 250 422" id="bn"/><path d="M528 24C258 24 94-156 94-433c0-354 228-699 603-699 222 0 381 120 410 314l-176 39c-14-114-95-192-238-192-272 0-419 288-419 536 0 167 76 298 258 298 155 0 277-90 329-211l166 58C935-93 745 24 528 24" id="bo"/><path d="M356-670L245 0H65l247-1490h180l-94 565c97-150 219-207 362-207 226 0 365 139 318 422L960 0H779l116-695c29-174-53-275-208-275-158 0-299 107-331 300" id="bp"/><path d="M66 0l185-1118h180L246 0H66zm307-1301c-71 0-117-55-106-119s74-119 145-119c65 0 117 50 106 118s-78 120-145 120" id="bq"/><path d="M226-608c54-324 228-726 419-973h175c-209 318-363 684-411 972-44 264-11 530 103 888H337C213-15 178-320 226-608" id="br"/><path d="M-43 280C186-71 310-340 354-607c48-291 15-654-89-973h176c108 246 149 649 95 974-48 289-184 595-403 886H-43" id="bs"/><path d="M211 13C134 13 76-52 90-134c12-70 77-122 143-122 81 0 133 67 122 143-10 69-73 126-144 126zm133-809c-77 0-135-65-121-147 12-70 77-122 143-122 81 0 133 67 122 143-10 69-73 126-144 126" id="bt"/><g id="x"><use transform="matrix(0.0087890625,0,0,0.0087890625,0,0)" xlink:href="#bh"/><use transform="matrix(0.0087890625,0,0,0.0087890625,11.91796875,0)" xlink:href="#bi"/><use transform="matrix(0.0087890625,0,0,0.0087890625,22.2802734375,0)" xlink:href="#bj"/><use transform="matrix(0.0087890625,0,0,0.0087890625,29.0654296875,0)" xlink:href="#bk"/><use transform="matrix(0.0087890625,0,0,0.0087890625,38.5576171875,0)" xlink:href="#bl"/><use transform="matrix(0.0087890625,0,0,0.0087890625,44.2880859375,0)" xlink:href="#bi"/><use transform="matrix(0.0087890625,0,0,0.0087890625,54.650390625,0)" xlink:href="#bm"/><use transform="matrix(0.0087890625,0,0,0.0087890625,68.2119140625,0)" xlink:href="#bn"/><use transform="matrix(0.0087890625,0,0,0.0087890625,79.259765625,0)" xlink:href="#bo"/><use transform="matrix(0.0087890625,0,0,0.0087890625,89.5517578125,0)" xlink:href="#bp"/><use transform="matrix(0.0087890625,0,0,0.0087890625,100.1953125,0)" xlink:href="#bj"/><use transform="matrix(0.0087890625,0,0,0.0087890625,107.26171875,0)" xlink:href="#bq"/><use transform="matrix(0.0087890625,0,0,0.0087890625,111.6298828125,0)" xlink:href="#bo"/><use transform="matrix(0.0087890625,0,0,0.0087890625,121.921875,0)" xlink:href="#bp"/><use transform="matrix(0.0087890625,0,0,0.0087890625,132.5654296875,0)" xlink:href="#bl"/><use transform="matrix(0.0087890625,0,0,0.0087890625,138.4716796875,0)" xlink:href="#br"/><use transform="matrix(0.0087890625,0,0,0.0087890625,145.037109375,0)" xlink:href="#bs"/><use transform="matrix(0.0087890625,0,0,0.0087890625,151.59375,0)" xlink:href="#bt"/></g><path d="M575 26C254 26 62-139 87-390h195c-13 168 129 246 305 246 202 0 370-106 400-265 38-202-254-238-427-293-212-68-349-179-316-387 40-252 276-421 566-421 289 0 487 168 458 396h-185c7-144-113-228-291-228-194 0-337 102-361 240-27 156 137 212 244 243l142 41c149 43 400 132 354 412-40 244-251 432-596 432" id="bu"/><path d="M356-664L245 0H65l186-1118h173l-32 197c96-152 219-211 366-211 232 0 366 145 319 428L960 0H779l117-701c29-174-48-269-198-269-165 0-310 115-342 306" id="bv"/><path d="M456 442C197 442 73 327 25 209l155-84c33 60 86 160 280 160 184 0 332-89 363-272l37-218-16 4C793-134 707-18 498-18 260-18 96-170 96-443c0-341 216-689 568-689 222 0 274 139 301 198l21-5 30-179h175L999 35c-48 288-275 407-543 407zm75-620c274 0 401-267 401-512 0-170-80-281-247-281-260 0-408 269-408 518 0 167 83 275 254 275" id="bw"/><g id="y"><use transform="matrix(0.0087890625,0,0,0.0087890625,0,0)" xlink:href="#bu"/><use transform="matrix(0.0087890625,0,0,0.0087890625,11.53125,0)" xlink:href="#bl"/><use transform="matrix(0.0087890625,0,0,0.0087890625,17.4375,0)" xlink:href="#bj"/><use transform="matrix(0.0087890625,0,0,0.0087890625,24.50390625,0)" xlink:href="#bq"/><use transform="matrix(0.0087890625,0,0,0.0087890625,28.8720703125,0)" xlink:href="#bv"/><use transform="matrix(0.0087890625,0,0,0.0087890625,39.515625,0)" xlink:href="#bw"/></g><path d="M389 0L147-1118h188c55 314 135 617 168 951 141-329 323-637 482-951h205L578 0H389" id="bx"/><path d="M592 24c-216 0-276-130-305-197h-18L239 0H65l247-1490h180l-92 551h15c51-63 134-193 344-193 246 0 401 170 401 447 0 348-211 709-568 709zm-24-161c267 0 411-296 411-543 0-170-78-291-250-291-269 0-405 284-405 542 0 177 81 292 244 292" id="by"/><path d="M87 0l247-1490h908l-28 167H496l-80 487h669l-28 167H387l-83 502h727L1004 0H87" id="bz"/><g id="z"><use transform="matrix(0.0087890625,0,0,0.0087890625,0,0)" xlink:href="#bh"/><use transform="matrix(0.0087890625,0,0,0.0087890625,11.91796875,0)" xlink:href="#bx"/><use transform="matrix(0.0087890625,0,0,0.0087890625,21.6826171875,0)" xlink:href="#bi"/><use transform="matrix(0.0087890625,0,0,0.0087890625,32.044921875,0)" xlink:href="#bj"/><use transform="matrix(0.0087890625,0,0,0.0087890625,38.53125,0)" xlink:href="#bn"/><use transform="matrix(0.0087890625,0,0,0.0087890625,49.5791015625,0)" xlink:href="#bj"/><use transform="matrix(0.0087890625,0,0,0.0087890625,56.6455078125,0)" xlink:href="#by"/><use transform="matrix(0.0087890625,0,0,0.0087890625,67.67578125,0)" xlink:href="#bi"/><use transform="matrix(0.0087890625,0,0,0.0087890625,78.0380859375,0)" xlink:href="#bq"/><use transform="matrix(0.0087890625,0,0,0.0087890625,82.40625,0)" xlink:href="#bl"/><use transform="matrix(0.0087890625,0,0,0.0087890625,88.13671875,0)" xlink:href="#bi"/><use transform="matrix(0.0087890625,0,0,0.0087890625,98.4990234375,0)" xlink:href="#bz"/><use transform="matrix(0.0087890625,0,0,0.0087890625,109.3271484375,0)" xlink:href="#bq"/><use transform="matrix(0.0087890625,0,0,0.0087890625,113.6953125,0)" xlink:href="#bv"/><use transform="matrix(0.0087890625,0,0,0.0087890625,124.3388671875,0)" xlink:href="#bw"/><use transform="matrix(0.0087890625,0,0,0.0087890625,135.3779296875,0)" xlink:href="#bn"/><use transform="matrix(0.0087890625,0,0,0.0087890625,146.42578125,0)" xlink:href="#by"/><use transform="matrix(0.0087890625,0,0,0.0087890625,157.4560546875,0)" xlink:href="#bi"/><use transform="matrix(0.0087890625,0,0,0.0087890625,167.818359375,0)" xlink:href="#br"/><use transform="matrix(0.0087890625,0,0,0.0087890625,174.181640625,0)" xlink:href="#bi"/><use transform="matrix(0.0087890625,0,0,0.0087890625,184.5439453125,0)" xlink:href="#bq"/><use transform="matrix(0.0087890625,0,0,0.0087890625,188.912109375,0)" xlink:href="#bv"/><use transform="matrix(0.0087890625,0,0,0.0087890625,199.5556640625,0)" xlink:href="#bw"/><use transform="matrix(0.0087890625,0,0,0.0087890625,210.5947265625,0)" xlink:href="#bn"/><use transform="matrix(0.0087890625,0,0,0.0087890625,221.642578125,0)" xlink:href="#by"/><use transform="matrix(0.0087890625,0,0,0.0087890625,232.6728515625,0)" xlink:href="#bi"/><use transform="matrix(0.0087890625,0,0,0.0087890625,243.03515625,0)" xlink:href="#bt"/></g><g id="A"><use transform="matrix(0.0087890625,0,0,0.0087890625,0,0)" xlink:href="#bu"/><use transform="matrix(0.0087890625,0,0,0.0087890625,11.53125,0)" xlink:href="#bl"/><use transform="matrix(0.0087890625,0,0,0.0087890625,17.4375,0)" xlink:href="#bj"/><use transform="matrix(0.0087890625,0,0,0.0087890625,24.50390625,0)" xlink:href="#bq"/><use transform="matrix(0.0087890625,0,0,0.0087890625,28.8720703125,0)" xlink:href="#bv"/><use transform="matrix(0.0087890625,0,0,0.0087890625,39.515625,0)" xlink:href="#bw"/><use transform="matrix(0.0087890625,0,0,0.0087890625,50.5546875,0)" xlink:href="#bs"/><use transform="matrix(0.0087890625,0,0,0.0087890625,57.111328125,0)" xlink:href="#bt"/></g><g id="B"><use transform="matrix(0.0087890625,0,0,0.0087890625,0,0)" xlink:href="#bu"/><use transform="matrix(0.0087890625,0,0,0.0087890625,11.53125,0)" xlink:href="#bl"/><use transform="matrix(0.0087890625,0,0,0.0087890625,17.4375,0)" xlink:href="#bj"/><use transform="matrix(0.0087890625,0,0,0.0087890625,24.50390625,0)" xlink:href="#bq"/><use transform="matrix(0.0087890625,0,0,0.0087890625,28.8720703125,0)" xlink:href="#bv"/><use transform="matrix(0.0087890625,0,0,0.0087890625,39.515625,0)" xlink:href="#bw"/></g><path d="M443 14C219 14 87-123 134-408l117-710h180L317-423c-28 171 49 275 206 275s300-105 332-300l110-670h181L961 0H787l35-209C722-47 590 14 443 14" id="bA"/><path d="M-4 418l255-1536h174l-30 179h9c47-68 143-193 355-193 246 0 401 170 401 447 0 348-211 709-568 709-219 0-274-140-300-202h-17l-99 596H-4zm572-555c267 0 411-296 411-543 0-170-78-291-250-291-269 0-405 284-405 542 0 177 81 292 244 292" id="bB"/><path d="M492-1490L245 0H65l247-1490h180" id="bC"/><g id="C"><use transform="matrix(0.0087890625,0,0,0.0087890625,0,0)" xlink:href="#bh"/><use transform="matrix(0.0087890625,0,0,0.0087890625,11.91796875,0)" xlink:href="#bv"/><use transform="matrix(0.0087890625,0,0,0.0087890625,22.5615234375,0)" xlink:href="#bi"/><use transform="matrix(0.0087890625,0,0,0.0087890625,32.923828125,0)" xlink:href="#bA"/><use transform="matrix(0.0087890625,0,0,0.0087890625,43.576171875,0)" xlink:href="#bi"/><use transform="matrix(0.0087890625,0,0,0.0087890625,53.9384765625,0)" xlink:href="#bk"/><use transform="matrix(0.0087890625,0,0,0.0087890625,63.4306640625,0)" xlink:href="#bu"/><use transform="matrix(0.0087890625,0,0,0.0087890625,74.9619140625,0)" xlink:href="#bB"/><use transform="matrix(0.0087890625,0,0,0.0087890625,85.9921875,0)" xlink:href="#bq"/><use transform="matrix(0.0087890625,0,0,0.0087890625,90.3603515625,0)" xlink:href="#bi"/><use transform="matrix(0.0087890625,0,0,0.0087890625,100.72265625,0)" xlink:href="#bC"/><use transform="matrix(0.0087890625,0,0,0.0087890625,105.08203125,0)" xlink:href="#br"/><use transform="matrix(0.0087890625,0,0,0.0087890625,111.6474609375,0)" xlink:href="#bs"/></g><path d="M653-1490V0H466v-1314h-10L96-1047v-204l324-239h233" id="bD"/><use transform="matrix(0.008173828125000001,0,0,0.008173828125000001,0,0)" xlink:href="#bD" id="E"/><path d="M625 442c-280 0-454-114-503-274l258-72c28 63 97 128 243 128 153 0 246-69 246-216v-206h-23C805-108 717-16 536-16 284-16 81-191 81-561c0-378 208-571 456-571 188 0 280 113 321 202h13v-188h295V-9c0 303-226 451-541 451zm5-686c153 0 240-119 240-319 0-198-86-329-240-329-158 0-241 137-241 329 0 195 85 319 241 319" id="bE"/><g id="F"><use transform="matrix(0.0087890625,0,0,0.0087890625,0,0)" xlink:href="#be"/><use transform="matrix(0.0087890625,0,0,0.0087890625,11.9091796875,0)" xlink:href="#ar"/><use transform="matrix(0.0087890625,0,0,0.0087890625,16.787109375,0)" xlink:href="#aX"/><use transform="matrix(0.0087890625,0,0,0.0087890625,27.9931640625,0)" xlink:href="#bE"/><use transform="matrix(0.0087890625,0,0,0.0087890625,39.3662109375,0)" xlink:href="#bd"/></g><path d="M613 24c-304 0-509-231-509-576 0-350 205-580 509-580 216 0 392 114 453 309l-173 49c-33-115-133-197-280-197-223 0-326 196-326 419 0 220 103 415 326 415 150 0 252-85 285-206l172 49C1010-95 832 24 613 24" id="bF"/><g id="G"><use transform="matrix(0.0087890625,0,0,0.0087890625,0,0)" xlink:href="#av"/><use transform="matrix(0.0087890625,0,0,0.0087890625,8.279296875,0)" xlink:href="#aI"/><use transform="matrix(0.0087890625,0,0,0.0087890625,17.7802734375,0)" xlink:href="#bF"/><use transform="matrix(0.0087890625,0,0,0.0087890625,28.2392578125,0)" xlink:href="#ax"/><use transform="matrix(0.0087890625,0,0,0.0087890625,38.3466796875,0)" xlink:href="#aw"/><use transform="matrix(0.0087890625,0,0,0.0087890625,48.9814453125,0)" xlink:href="#aw"/><use transform="matrix(0.0087890625,0,0,0.0087890625,59.6162109375,0)" xlink:href="#az"/><use transform="matrix(0.0087890625,0,0,0.0087890625,70.1103515625,0)" xlink:href="#aD"/><use transform="matrix(0.0087890625,0,0,0.0087890625,76.88671875,0)" xlink:href="#aA"/></g><g id="H"><use transform="matrix(0.0087890625,0,0,0.0087890625,0,0)" xlink:href="#aB"/><use transform="matrix(0.0087890625,0,0,0.0087890625,11.548828125,0)" xlink:href="#bF"/><use transform="matrix(0.0087890625,0,0,0.0087890625,22.0078125,0)" xlink:href="#ax"/><use transform="matrix(0.0087890625,0,0,0.0087890625,32.115234375,0)" xlink:href="#aw"/><use transform="matrix(0.0087890625,0,0,0.0087890625,42.75,0)" xlink:href="#aw"/><use transform="matrix(0.0087890625,0,0,0.0087890625,53.384765625,0)" xlink:href="#az"/><use transform="matrix(0.0087890625,0,0,0.0087890625,63.87890625,0)" xlink:href="#aD"/></g><path d="M180 0v-1490h901v168H370v510h643v168H370V0H180" id="bG"/><g id="I"><use transform="matrix(0.0087890625,0,0,0.0087890625,0,0)" xlink:href="#av"/><use transform="matrix(0.0087890625,0,0,0.0087890625,8.279296875,0)" xlink:href="#aI"/><use transform="matrix(0.0087890625,0,0,0.0087890625,17.7802734375,0)" xlink:href="#aK"/><use transform="matrix(0.0087890625,0,0,0.0087890625,28.8017578125,0)" xlink:href="#aE"/><use transform="matrix(0.0087890625,0,0,0.0087890625,33.1611328125,0)" xlink:href="#az"/><use transform="matrix(0.0087890625,0,0,0.0087890625,43.6552734375,0)" xlink:href="#aL"/><use transform="matrix(0.0087890625,0,0,0.0087890625,48.0146484375,0)" xlink:href="#bG"/><use transform="matrix(0.0087890625,0,0,0.0087890625,57.9287109375,0)" xlink:href="#az"/><use transform="matrix(0.0087890625,0,0,0.0087890625,68.4228515625,0)" xlink:href="#aL"/><use transform="matrix(0.0087890625,0,0,0.0087890625,72.7822265625,0)" xlink:href="#aR"/><use transform="matrix(0.0087890625,0,0,0.0087890625,83.8037109375,0)" xlink:href="#aA"/></g><path d="M678-1118v154H420V0H240v-964H20v-154h220v-149c0-194 155-293 318-293 85 0 141 18 168 30l-50 154c-19-6-47-17-97-17-111 0-159 58-159 166v109h258" id="bH"/><g id="J"><use transform="matrix(0.0087890625,0,0,0.0087890625,0,0)" xlink:href="#aB"/><use transform="matrix(0.0087890625,0,0,0.0087890625,11.548828125,0)" xlink:href="#aK"/><use transform="matrix(0.0087890625,0,0,0.0087890625,22.5703125,0)" xlink:href="#aE"/><use transform="matrix(0.0087890625,0,0,0.0087890625,26.9296875,0)" xlink:href="#az"/><use transform="matrix(0.0087890625,0,0,0.0087890625,37.423828125,0)" xlink:href="#aL"/><use transform="matrix(0.0087890625,0,0,0.0087890625,41.783203125,0)" xlink:href="#bH"/><use transform="matrix(0.0087890625,0,0,0.0087890625,47.91796875,0)" xlink:href="#az"/><use transform="matrix(0.0087890625,0,0,0.0087890625,58.412109375,0)" xlink:href="#aL"/><use transform="matrix(0.0087890625,0,0,0.0087890625,62.771484375,0)" xlink:href="#aR"/></g><path d="M180 0v-1490h908v168H370v486h669v168H370v500h727V0H180" id="bI"/><g id="K"><use transform="matrix(0.0087890625,0,0,0.0087890625,0,0)" xlink:href="#av"/><use transform="matrix(0.0087890625,0,0,0.0087890625,8.279296875,0)" xlink:href="#aF"/><use transform="matrix(0.0087890625,0,0,0.0087890625,19.318359375,0)" xlink:href="#ax"/><use transform="matrix(0.0087890625,0,0,0.0087890625,29.42578125,0)" xlink:href="#ay"/><use transform="matrix(0.0087890625,0,0,0.0087890625,45.193359375,0)" xlink:href="#az"/><use transform="matrix(0.0087890625,0,0,0.0087890625,55.6875,0)" xlink:href="#bI"/><use transform="matrix(0.0087890625,0,0,0.0087890625,66.5068359375,0)" xlink:href="#aw"/><use transform="matrix(0.0087890625,0,0,0.0087890625,77.1416015625,0)" xlink:href="#aR"/><use transform="matrix(0.0087890625,0,0,0.0087890625,88.1630859375,0)" xlink:href="#aA"/></g><g id="L"><use transform="matrix(0.0087890625,0,0,0.0087890625,0,0)" xlink:href="#aS"/><use transform="matrix(0.0087890625,0,0,0.0087890625,11.021484375,0)" xlink:href="#aH"/><use transform="matrix(0.0087890625,0,0,0.0087890625,21.814453125,0)" xlink:href="#aH"/><use transform="matrix(0.0087890625,0,0,0.0087890625,32.607421875,0)" xlink:href="#aL"/></g><path d="M409 0L70-1118h191c89 329 165 560 243 925 75-353 154-601 240-925h192c85 325 161 564 235 922 77-354 157-598 244-922h191L1267 0h-179c-86-307-176-590-250-913C763-588 675-308 588 0H409" id="bJ"/><g id="M"><use transform="matrix(0.0087890625,0,0,0.0087890625,0,0)" xlink:href="#av"/><use transform="matrix(0.0087890625,0,0,0.0087890625,8.279296875,0)" xlink:href="#aR"/><use transform="matrix(0.0087890625,0,0,0.0087890625,19.30078125,0)" xlink:href="#aD"/><use transform="matrix(0.0087890625,0,0,0.0087890625,26.0771484375,0)" xlink:href="#ax"/><use transform="matrix(0.0087890625,0,0,0.0087890625,36.1845703125,0)" xlink:href="#bJ"/><use transform="matrix(0.0087890625,0,0,0.0087890625,50.9150390625,0)" xlink:href="#aE"/><use transform="matrix(0.0087890625,0,0,0.0087890625,55.2744140625,0)" xlink:href="#aw"/><use transform="matrix(0.0087890625,0,0,0.0087890625,65.9091796875,0)" xlink:href="#aF"/><use transform="matrix(0.0087890625,0,0,0.0087890625,76.9482421875,0)" xlink:href="#aM"/><use transform="matrix(0.0087890625,0,0,0.0087890625,83.513671875,0)" xlink:href="#aP"/></g><path d="M338-670V0H158v-1490h180v566c73-149 190-208 336-208 226 0 379 139 379 422V0H872v-695c0-172-96-275-252-275-161 0-282 109-282 300" id="bK"/><path d="M158 0v-1490h180v865h22l478-493h223L593-638 1096 0H865L456-523 338-412V0H158" id="bL"/><path d="M458 0L52-1490h194c108 439 233 855 324 1313 92-459 221-873 331-1313h216c110 438 234 854 330 1307 92-455 216-869 323-1307h196L1558 0h-221l-256-944c-26-95-50-200-73-331-22 122-44 223-73 331L680 0H458" id="bM"/><g id="N"><use transform="matrix(0.0087890625,0,0,0.0087890625,0,0)" xlink:href="#av"/><use transform="matrix(0.0087890625,0,0,0.0087890625,8.279296875,0)" xlink:href="#bF"/><use transform="matrix(0.0087890625,0,0,0.0087890625,18.5625,0)" xlink:href="#bK"/><use transform="matrix(0.0087890625,0,0,0.0087890625,29.2060546875,0)" xlink:href="#az"/><use transform="matrix(0.0087890625,0,0,0.0087890625,39.7001953125,0)" xlink:href="#bF"/><use transform="matrix(0.0087890625,0,0,0.0087890625,49.9833984375,0)" xlink:href="#bL"/><use transform="matrix(0.0087890625,0,0,0.0087890625,59.8623046875,0)" xlink:href="#bG"/><use transform="matrix(0.0087890625,0,0,0.0087890625,69.7763671875,0)" xlink:href="#aH"/><use transform="matrix(0.0087890625,0,0,0.0087890625,80.5693359375,0)" xlink:href="#aD"/><use transform="matrix(0.0087890625,0,0,0.0087890625,87.345703125,0)" xlink:href="#bM"/><use transform="matrix(0.0087890625,0,0,0.0087890625,105.08203125,0)" xlink:href="#aE"/><use transform="matrix(0.0087890625,0,0,0.0087890625,109.44140625,0)" xlink:href="#aw"/><use transform="matrix(0.0087890625,0,0,0.0087890625,120.076171875,0)" xlink:href="#aM"/><use transform="matrix(0.0087890625,0,0,0.0087890625,126.6416015625,0)" xlink:href="#aP"/></g><path d="M750-1118v229H516V0H217v-889H20v-229h197v-86c0-238 156-356 363-356 94 0 178 20 215 31l-54 226c-25-7-61-15-100-15-123-3-131 84-125 200h234" id="bN"/><path d="M537 19C279 19 81-185 81-557c0-382 206-575 454-575 190 0 278 113 318 202h10v-560h300V0H868v-179h-15C812-89 719 19 537 19zm92-241c153 0 240-134 240-336 0-203-86-334-240-334-158 0-240 138-240 334 0 197 84 336 240 336" id="bO"/><g id="O"><use transform="matrix(0.0087890625,0,0,0.0087890625,0,0)" xlink:href="#ap"/><use transform="matrix(0.0087890625,0,0,0.0087890625,11.7861328125,0)" xlink:href="#aq"/><use transform="matrix(0.0087890625,0,0,0.0087890625,23.1328125,0)" xlink:href="#ar"/><use transform="matrix(0.0087890625,0,0,0.0087890625,28.0107421875,0)" xlink:href="#as"/><use transform="matrix(0.0087890625,0,0,0.0087890625,38.7333984375,0)" xlink:href="#at"/><use transform="matrix(0.0087890625,0,0,0.0087890625,43.611328125,0)" xlink:href="#bN"/><use transform="matrix(0.0087890625,0,0,0.0087890625,50.3876953125,0)" xlink:href="#as"/><use transform="matrix(0.0087890625,0,0,0.0087890625,61.1103515625,0)" xlink:href="#at"/><use transform="matrix(0.0087890625,0,0,0.0087890625,65.98828125,0)" xlink:href="#bO"/></g><g id="P"><use transform="matrix(0.0087890625,0,0,0.0087890625,0,0)" xlink:href="#aJ"/><use transform="matrix(0.0087890625,0,0,0.0087890625,11.9091796875,0)" xlink:href="#aI"/><use transform="matrix(0.0087890625,0,0,0.0087890625,21.41015625,0)" xlink:href="#aK"/><use transform="matrix(0.0087890625,0,0,0.0087890625,32.431640625,0)" xlink:href="#aE"/><use transform="matrix(0.0087890625,0,0,0.0087890625,36.791015625,0)" xlink:href="#az"/><use transform="matrix(0.0087890625,0,0,0.0087890625,47.28515625,0)" xlink:href="#aL"/><use transform="matrix(0.0087890625,0,0,0.0087890625,51.64453125,0)" xlink:href="#bG"/><use transform="matrix(0.0087890625,0,0,0.0087890625,61.55859375,0)" xlink:href="#az"/><use transform="matrix(0.0087890625,0,0,0.0087890625,72.052734375,0)" xlink:href="#aL"/><use transform="matrix(0.0087890625,0,0,0.0087890625,76.412109375,0)" xlink:href="#aR"/><use transform="matrix(0.0087890625,0,0,0.0087890625,87.43359375,0)" xlink:href="#aA"/></g><path d="M226 279v-1860h398v153H398V126h226v153H226" id="bP"/><path d="M123 279V126h226v-1554H123v-153h398V279H123" id="bQ"/><g id="Q"><use transform="matrix(0.0087890625,0,0,0.0087890625,0,0)" xlink:href="#bG"/><use transform="matrix(0.0087890625,0,0,0.0087890625,9.9140625,0)" xlink:href="#az"/><use transform="matrix(0.0087890625,0,0,0.0087890625,20.408203125,0)" xlink:href="#aL"/><use transform="matrix(0.0087890625,0,0,0.0087890625,24.767578125,0)" xlink:href="#aR"/><use transform="matrix(0.0087890625,0,0,0.0087890625,35.7890625,0)" xlink:href="#bP"/><use transform="matrix(0.0087890625,0,0,0.0087890625,42.3544921875,0)" xlink:href="#bQ"/><use transform="matrix(0.0087890625,0,0,0.0087890625,48.919921875,0)" xlink:href="#bP"/><use transform="matrix(0.0087890625,0,0,0.0087890625,55.4853515625,0)" xlink:href="#bQ"/></g><path d="M98-1322v-168h1126v168H757V0H567v-1322H98" id="bR"/><path d="M180 0v-1490h510c348 0 508 194 508 460 0 198-88 351-276 417L1256 0h-220L726-579c-117 2-238 0-356 1V0H180zm190-747h312c235 0 327-108 327-283 0-177-92-293-329-293H370v576" id="bS"/><path d="M600 0L52-1490h200c166 485 304 806 458 1336 156-533 285-846 449-1336h202L819 0H600" id="bT"/><g id="R"><use transform="matrix(0.0087890625,0,0,0.0087890625,0,0)" xlink:href="#av"/><use transform="matrix(0.0087890625,0,0,0.0087890625,6.9521484375,0)" xlink:href="#bR"/><use transform="matrix(0.0087890625,0,0,0.0087890625,18.5712890625,0)" xlink:href="#bS"/><use transform="matrix(0.0087890625,0,0,0.0087890625,30.1552734375,0)" xlink:href="#bI"/><use transform="matrix(0.0087890625,0,0,0.0087890625,40.974609375,0)" xlink:href="#aQ"/><use transform="matrix(0.0087890625,0,0,0.0087890625,54.5361328125,0)" xlink:href="#aQ"/><use transform="matrix(0.0087890625,0,0,0.0087890625,68.09765625,0)" xlink:href="#bI"/><use transform="matrix(0.0087890625,0,0,0.0087890625,78.9169921875,0)" xlink:href="#bS"/><use transform="matrix(0.0087890625,0,0,0.0087890625,90.2021484375,0)" xlink:href="#bT"/><use transform="matrix(0.0087890625,0,0,0.0087890625,102.62109375,0)" xlink:href="#bI"/><use transform="matrix(0.0087890625,0,0,0.0087890625,113.4404296875,0)" xlink:href="#bS"/><use transform="matrix(0.0087890625,0,0,0.0087890625,125.0244140625,0)" xlink:href="#bR"/><use transform="matrix(0.0087890625,0,0,0.0087890625,136.037109375,0)" xlink:href="#aA"/></g><path d="M180 0v-1490h190v644h782v-644h190V0h-190v-678H370V0H180" id="bU"/><path d="M784 20c-382 0-662-292-662-764 0-473 280-766 662-766s660 293 660 766c0 472-278 764-660 764zm0-176c266 0 475-207 475-588 0-383-209-590-475-590-268 0-477 208-477 590 0 380 209 588 477 588" id="bV"/><path d="M130 0v-134l666-991c45-67 96-135 147-202-269 9-546 3-821 5v-168h1036v136L502-379c-49 72-103 145-157 216 268-9 546-3 821-5V0H130" id="bW"/><g id="S"><use transform="matrix(0.0087890625,0,0,0.0087890625,0,0)" xlink:href="#av"/><use transform="matrix(0.0087890625,0,0,0.0087890625,6.9521484375,0)" xlink:href="#bR"/><use transform="matrix(0.0087890625,0,0,0.0087890625,18.5712890625,0)" xlink:href="#bS"/><use transform="matrix(0.0087890625,0,0,0.0087890625,30.1552734375,0)" xlink:href="#bI"/><use transform="matrix(0.0087890625,0,0,0.0087890625,40.974609375,0)" xlink:href="#aQ"/><use transform="matrix(0.0087890625,0,0,0.0087890625,54.5361328125,0)" xlink:href="#aQ"/><use transform="matrix(0.0087890625,0,0,0.0087890625,68.09765625,0)" xlink:href="#bI"/><use transform="matrix(0.0087890625,0,0,0.0087890625,78.9169921875,0)" xlink:href="#bS"/><use transform="matrix(0.0087890625,0,0,0.0087890625,90.5009765625,0)" xlink:href="#bU"/><use transform="matrix(0.0087890625,0,0,0.0087890625,103.8779296875,0)" xlink:href="#bV"/><use transform="matrix(0.0087890625,0,0,0.0087890625,117.6416015625,0)" xlink:href="#bS"/><use transform="matrix(0.0087890625,0,0,0.0087890625,129.2255859375,0)" xlink:href="#bW"/><use transform="matrix(0.0087890625,0,0,0.0087890625,140.5458984375,0)" xlink:href="#aA"/></g><g id="T"><use transform="matrix(0.0087890625,0,0,0.0087890625,0,0)" xlink:href="#aB"/><use transform="matrix(0.0087890625,0,0,0.0087890625,11.548828125,0)" xlink:href="#aC"/><use transform="matrix(0.0087890625,0,0,0.0087890625,17.4375,0)" xlink:href="#aD"/><use transform="matrix(0.0087890625,0,0,0.0087890625,24.4951171875,0)" xlink:href="#aE"/><use transform="matrix(0.0087890625,0,0,0.0087890625,28.8544921875,0)" xlink:href="#aw"/><use transform="matrix(0.0087890625,0,0,0.0087890625,39.4892578125,0)" xlink:href="#aF"/></g><g id="U"><use transform="matrix(0.0087890625,0,0,0.0087890625,0,0)" xlink:href="#aJ"/><use transform="matrix(0.0087890625,0,0,0.0087890625,11.9091796875,0)" xlink:href="#bH"/><use transform="matrix(0.0087890625,0,0,0.0087890625,18.5712890625,0)" xlink:href="#aE"/><use transform="matrix(0.0087890625,0,0,0.0087890625,22.9306640625,0)" xlink:href="#aL"/><use transform="matrix(0.0087890625,0,0,0.0087890625,27.2900390625,0)" xlink:href="#aL"/><use transform="matrix(0.0087890625,0,0,0.0087890625,31.6494140625,0)" xlink:href="#bg"/><use transform="matrix(0.0087890625,0,0,0.0087890625,43.4267578125,0)" xlink:href="#aH"/><use transform="matrix(0.0087890625,0,0,0.0087890625,54.3955078125,0)" xlink:href="#ax"/><use transform="matrix(0.0087890625,0,0,0.0087890625,64.5029296875,0)" xlink:href="#aD"/><use transform="matrix(0.0087890625,0,0,0.0087890625,70.98046875,0)" xlink:href="#aR"/><use transform="matrix(0.0087890625,0,0,0.0087890625,82.001953125,0)" xlink:href="#aM"/><use transform="matrix(0.0087890625,0,0,0.0087890625,88.5673828125,0)" xlink:href="#aP"/></g><g id="V"><use transform="matrix(0.0087890625,0,0,0.0087890625,0,0)" xlink:href="#aJ"/><use transform="matrix(0.0087890625,0,0,0.0087890625,11.9091796875,0)" xlink:href="#aR"/><use transform="matrix(0.0087890625,0,0,0.0087890625,22.9306640625,0)" xlink:href="#aD"/><use transform="matrix(0.0087890625,0,0,0.0087890625,29.70703125,0)" xlink:href="#ax"/><use transform="matrix(0.0087890625,0,0,0.0087890625,39.814453125,0)" xlink:href="#bJ"/><use transform="matrix(0.0087890625,0,0,0.0087890625,54.544921875,0)" xlink:href="#bg"/><use transform="matrix(0.0087890625,0,0,0.0087890625,66.322265625,0)" xlink:href="#aH"/><use transform="matrix(0.0087890625,0,0,0.0087890625,77.291015625,0)" xlink:href="#ax"/><use transform="matrix(0.0087890625,0,0,0.0087890625,87.3984375,0)" xlink:href="#aD"/><use transform="matrix(0.0087890625,0,0,0.0087890625,93.8759765625,0)" xlink:href="#aR"/><use transform="matrix(0.0087890625,0,0,0.0087890625,104.8974609375,0)" xlink:href="#aM"/><use transform="matrix(0.0087890625,0,0,0.0087890625,111.462890625,0)" xlink:href="#aP"/></g><path d="M135 0v-1490h980v253H440v416h609v249H440V0H135" id="bX"/><g id="W"><use transform="matrix(0.0087890625,0,0,0.0087890625,0,0)" xlink:href="#bX"/><use transform="matrix(0.0087890625,0,0,0.0087890625,10.0458984375,0)" xlink:href="#as"/><use transform="matrix(0.0087890625,0,0,0.0087890625,20.7685546875,0)" xlink:href="#at"/><use transform="matrix(0.0087890625,0,0,0.0087890625,25.646484375,0)" xlink:href="#bO"/></g><path d="M537 14c-226 0-379-139-379-422v-710h180v695c0 172 97 275 253 275 160 0 281-109 281-300v-670h181V0H879v-209C806-46 684 14 537 14" id="bY"/><g id="X"><use transform="matrix(0.0087890625,0,0,0.0087890625,0,0)" xlink:href="#av"/><use transform="matrix(0.0087890625,0,0,0.0087890625,8.279296875,0)" xlink:href="#aT"/><use transform="matrix(0.0087890625,0,0,0.0087890625,18.3076171875,0)" xlink:href="#ax"/><use transform="matrix(0.0087890625,0,0,0.0087890625,28.4150390625,0)" xlink:href="#aL"/><use transform="matrix(0.0087890625,0,0,0.0087890625,32.7744140625,0)" xlink:href="#bY"/><use transform="matrix(0.0087890625,0,0,0.0087890625,43.41796875,0)" xlink:href="#az"/><use transform="matrix(0.0087890625,0,0,0.0087890625,53.912109375,0)" xlink:href="#aA"/></g><path d="M126 0v-134l627-806v-11H146v-167h839v143L376-178v11h629V0H126" id="bZ"/><g id="Y"><use transform="matrix(0.0087890625,0,0,0.0087890625,0,0)" xlink:href="#av"/><use transform="matrix(0.0087890625,0,0,0.0087890625,8.279296875,0)" xlink:href="#aF"/><use transform="matrix(0.0087890625,0,0,0.0087890625,19.318359375,0)" xlink:href="#az"/><use transform="matrix(0.0087890625,0,0,0.0087890625,29.548828125,0)" xlink:href="#bZ"/><use transform="matrix(0.0087890625,0,0,0.0087890625,39.2255859375,0)" xlink:href="#aH"/><use transform="matrix(0.0087890625,0,0,0.0087890625,50.0185546875,0)" xlink:href="#aF"/><use transform="matrix(0.0087890625,0,0,0.0087890625,61.0576171875,0)" xlink:href="#az"/><use transform="matrix(0.0087890625,0,0,0.0087890625,71.5517578125,0)" xlink:href="#aw"/><use transform="matrix(0.0087890625,0,0,0.0087890625,82.1865234375,0)" xlink:href="#aA"/></g><g id="Z"><use transform="matrix(0.0087890625,0,0,0.0087890625,0,0)" xlink:href="#aS"/><use transform="matrix(0.0087890625,0,0,0.0087890625,11.021484375,0)" xlink:href="#aH"/><use transform="matrix(0.0087890625,0,0,0.0087890625,21.814453125,0)" xlink:href="#aH"/><use transform="matrix(0.0087890625,0,0,0.0087890625,32.607421875,0)" xlink:href="#aL"/><use transform="matrix(0.0087890625,0,0,0.0087890625,36.966796875,0)" xlink:href="#az"/><use transform="matrix(0.0087890625,0,0,0.0087890625,47.63671875,0)" xlink:href="#ax"/><use transform="matrix(0.0087890625,0,0,0.0087890625,57.744140625,0)" xlink:href="#aw"/></g><path d="M140 405l46-156c120 36 205 19 263-150l32-93L54-1118h197c107 313 237 620 324 950 87-331 219-637 326-950h196L606 167c-68 178-176 259-334 259-64 0-113-12-132-21" id="ca"/><g id="aa"><use transform="matrix(0.0087890625,0,0,0.0087890625,0,0)" xlink:href="#av"/><use transform="matrix(0.0087890625,0,0,0.0087890625,8.279296875,0)" xlink:href="#aR"/><use transform="matrix(0.0087890625,0,0,0.0087890625,19.30078125,0)" xlink:href="#aE"/><use transform="matrix(0.0087890625,0,0,0.0087890625,23.66015625,0)" xlink:href="#aI"/><use transform="matrix(0.0087890625,0,0,0.0087890625,33.1611328125,0)" xlink:href="#aK"/><use transform="matrix(0.0087890625,0,0,0.0087890625,44.1826171875,0)" xlink:href="#aL"/><use transform="matrix(0.0087890625,0,0,0.0087890625,48.5419921875,0)" xlink:href="#ax"/><use transform="matrix(0.0087890625,0,0,0.0087890625,58.3857421875,0)" xlink:href="#ca"/><use transform="matrix(0.0087890625,0,0,0.0087890625,68.501953125,0)" xlink:href="#bT"/><use transform="matrix(0.0087890625,0,0,0.0087890625,80.0068359375,0)" xlink:href="#ax"/><use transform="matrix(0.0087890625,0,0,0.0087890625,90.1142578125,0)" xlink:href="#aL"/><use transform="matrix(0.0087890625,0,0,0.0087890625,94.4736328125,0)" xlink:href="#bY"/><use transform="matrix(0.0087890625,0,0,0.0087890625,105.1171875,0)" xlink:href="#az"/><use transform="matrix(0.0087890625,0,0,0.0087890625,115.611328125,0)" xlink:href="#aA"/></g><use transform="matrix(0.0087890625,0,0,0.0087890625,0,0)" xlink:href="#aJ" id="ab"/><g id="ac"><use transform="matrix(0.0087890625,0,0,0.0087890625,0,0)" xlink:href="#aI"/><use transform="matrix(0.0087890625,0,0,0.0087890625,9.5009765625,0)" xlink:href="#az"/><use transform="matrix(0.0087890625,0,0,0.0087890625,19.9951171875,0)" xlink:href="#aC"/><use transform="matrix(0.0087890625,0,0,0.0087890625,25.7080078125,0)" xlink:href="#bT"/><use transform="matrix(0.0087890625,0,0,0.0087890625,37.212890625,0)" xlink:href="#ax"/><use transform="matrix(0.0087890625,0,0,0.0087890625,47.3203125,0)" xlink:href="#aL"/><use transform="matrix(0.0087890625,0,0,0.0087890625,51.6796875,0)" xlink:href="#bY"/><use transform="matrix(0.0087890625,0,0,0.0087890625,62.3232421875,0)" xlink:href="#az"/><use transform="matrix(0.0087890625,0,0,0.0087890625,72.8173828125,0)" xlink:href="#aM"/><use transform="matrix(0.0087890625,0,0,0.0087890625,79.3828125,0)" xlink:href="#aT"/><use transform="matrix(0.0087890625,0,0,0.0087890625,89.4111328125,0)" xlink:href="#ax"/><use transform="matrix(0.0087890625,0,0,0.0087890625,99.5185546875,0)" xlink:href="#aL"/><use transform="matrix(0.0087890625,0,0,0.0087890625,103.8779296875,0)" xlink:href="#bY"/><use transform="matrix(0.0087890625,0,0,0.0087890625,114.521484375,0)" xlink:href="#az"/><use transform="matrix(0.0087890625,0,0,0.0087890625,125.015625,0)" xlink:href="#aA"/></g><g id="ad"><use transform="matrix(0.0087890625,0,0,0.0087890625,0,0)" xlink:href="#aE"/><use transform="matrix(0.0087890625,0,0,0.0087890625,4.359375,0)" xlink:href="#aw"/><use transform="matrix(0.0087890625,0,0,0.0087890625,14.994140625,0)" xlink:href="#aC"/><use transform="matrix(0.0087890625,0,0,0.0087890625,20.8828125,0)" xlink:href="#aP"/><use transform="matrix(0.0087890625,0,0,0.0087890625,27.4482421875,0)" xlink:href="#aA"/></g><g id="ae"><use transform="matrix(0.0087890625,0,0,0.0087890625,0,0)" xlink:href="#aT"/><use transform="matrix(0.0087890625,0,0,0.0087890625,9.7646484375,0)" xlink:href="#aH"/><use transform="matrix(0.0087890625,0,0,0.0087890625,20.5576171875,0)" xlink:href="#aE"/><use transform="matrix(0.0087890625,0,0,0.0087890625,24.9169921875,0)" xlink:href="#aR"/></g><g id="af"><use transform="matrix(0.0087890625,0,0,0.0087890625,0,0)" xlink:href="#aF"/><use transform="matrix(0.0087890625,0,0,0.0087890625,11.0390625,0)" xlink:href="#az"/><use transform="matrix(0.0087890625,0,0,0.0087890625,21.533203125,0)" xlink:href="#aC"/><use transform="matrix(0.0087890625,0,0,0.0087890625,27.24609375,0)" xlink:href="#bT"/><use transform="matrix(0.0087890625,0,0,0.0087890625,38.7509765625,0)" xlink:href="#ax"/><use transform="matrix(0.0087890625,0,0,0.0087890625,48.8583984375,0)" xlink:href="#aL"/><use transform="matrix(0.0087890625,0,0,0.0087890625,53.2177734375,0)" xlink:href="#bY"/><use transform="matrix(0.0087890625,0,0,0.0087890625,63.861328125,0)" xlink:href="#az"/><use transform="matrix(0.0087890625,0,0,0.0087890625,74.35546875,0)" xlink:href="#aM"/><use transform="matrix(0.0087890625,0,0,0.0087890625,80.9208984375,0)" xlink:href="#aP"/><use transform="matrix(0.0087890625,0,0,0.0087890625,87.486328125,0)" xlink:href="#aA"/></g><g id="ag"><use transform="matrix(0.0087890625,0,0,0.0087890625,0,0)" xlink:href="#aE"/><use transform="matrix(0.0087890625,0,0,0.0087890625,4.359375,0)" xlink:href="#aw"/><use transform="matrix(0.0087890625,0,0,0.0087890625,14.994140625,0)" xlink:href="#aC"/></g><path d="M789 20c-398 0-667-293-667-764 0-473 273-766 655-766 315 0 558 198 612 487h-196c-61-191-204-311-415-311-262 0-471 207-471 590 0 380 208 588 482 588 249 0 420-165 425-427H828v-166h572v163c0 370-256 606-611 606" id="cb"/><g id="ah"><use transform="matrix(0.0087890625,0,0,0.0087890625,0,0)" xlink:href="#aI"/><use transform="matrix(0.0087890625,0,0,0.0087890625,9.5009765625,0)" xlink:href="#az"/><use transform="matrix(0.0087890625,0,0,0.0087890625,19.9951171875,0)" xlink:href="#aC"/><use transform="matrix(0.0087890625,0,0,0.0087890625,25.8837890625,0)" xlink:href="#cb"/><use transform="matrix(0.0087890625,0,0,0.0087890625,39.3134765625,0)" xlink:href="#az"/><use transform="matrix(0.0087890625,0,0,0.0087890625,49.5439453125,0)" xlink:href="#bZ"/><use transform="matrix(0.0087890625,0,0,0.0087890625,59.220703125,0)" xlink:href="#aH"/><use transform="matrix(0.0087890625,0,0,0.0087890625,70.013671875,0)" xlink:href="#aF"/><use transform="matrix(0.0087890625,0,0,0.0087890625,81.052734375,0)" xlink:href="#az"/><use transform="matrix(0.0087890625,0,0,0.0087890625,91.546875,0)" xlink:href="#aw"/><use transform="matrix(0.0087890625,0,0,0.0087890625,102.181640625,0)" xlink:href="#aM"/><use transform="matrix(0.0087890625,0,0,0.0087890625,108.544921875,0)" xlink:href="#aF"/><use transform="matrix(0.0087890625,0,0,0.0087890625,119.583984375,0)" xlink:href="#az"/><use transform="matrix(0.0087890625,0,0,0.0087890625,129.814453125,0)" xlink:href="#bZ"/><use transform="matrix(0.0087890625,0,0,0.0087890625,139.4912109375,0)" xlink:href="#aH"/><use transform="matrix(0.0087890625,0,0,0.0087890625,150.2841796875,0)" xlink:href="#aF"/><use transform="matrix(0.0087890625,0,0,0.0087890625,161.3232421875,0)" xlink:href="#az"/><use transform="matrix(0.0087890625,0,0,0.0087890625,171.8173828125,0)" xlink:href="#aw"/><use transform="matrix(0.0087890625,0,0,0.0087890625,182.4521484375,0)" xlink:href="#aA"/></g><g id="ai"><use transform="matrix(0.0087890625,0,0,0.0087890625,0,0)" xlink:href="#aS"/><use transform="matrix(0.0087890625,0,0,0.0087890625,11.021484375,0)" xlink:href="#aH"/><use transform="matrix(0.0087890625,0,0,0.0087890625,21.814453125,0)" xlink:href="#aH"/><use transform="matrix(0.0087890625,0,0,0.0087890625,32.607421875,0)" xlink:href="#aL"/><use transform="matrix(0.0087890625,0,0,0.0087890625,36.966796875,0)" xlink:href="#az"/><use transform="matrix(0.0087890625,0,0,0.0087890625,47.63671875,0)" xlink:href="#ax"/><use transform="matrix(0.0087890625,0,0,0.0087890625,57.744140625,0)" xlink:href="#aw"/><use transform="matrix(0.0087890625,0,0,0.0087890625,68.37890625,0)" xlink:href="#aP"/><use transform="matrix(0.0087890625,0,0,0.0087890625,74.9443359375,0)" xlink:href="#aA"/></g><g id="aj"><use transform="matrix(0.0087890625,0,0,0.0087890625,0,0)" xlink:href="#aE"/><use transform="matrix(0.0087890625,0,0,0.0087890625,4.359375,0)" xlink:href="#aI"/><use transform="matrix(0.0087890625,0,0,0.0087890625,13.8603515625,0)" xlink:href="#cb"/><use transform="matrix(0.0087890625,0,0,0.0087890625,27.2900390625,0)" xlink:href="#az"/><use transform="matrix(0.0087890625,0,0,0.0087890625,37.5205078125,0)" xlink:href="#bZ"/><use transform="matrix(0.0087890625,0,0,0.0087890625,47.197265625,0)" xlink:href="#aH"/><use transform="matrix(0.0087890625,0,0,0.0087890625,57.990234375,0)" xlink:href="#aF"/><use transform="matrix(0.0087890625,0,0,0.0087890625,69.029296875,0)" xlink:href="#az"/><use transform="matrix(0.0087890625,0,0,0.0087890625,79.5234375,0)" xlink:href="#aw"/><use transform="matrix(0.0087890625,0,0,0.0087890625,90.158203125,0)" xlink:href="#aM"/><use transform="matrix(0.0087890625,0,0,0.0087890625,96.7236328125,0)" xlink:href="#aP"/><use transform="matrix(0.0087890625,0,0,0.0087890625,103.2890625,0)" xlink:href="#aA"/></g><g id="ak"><use transform="matrix(0.0087890625,0,0,0.0087890625,0,0)" xlink:href="#aS"/><use transform="matrix(0.0087890625,0,0,0.0087890625,11.021484375,0)" xlink:href="#aH"/><use transform="matrix(0.0087890625,0,0,0.0087890625,21.814453125,0)" xlink:href="#aH"/><use transform="matrix(0.0087890625,0,0,0.0087890625,32.607421875,0)" xlink:href="#aL"/><use transform="matrix(0.0087890625,0,0,0.0087890625,36.966796875,0)" xlink:href="#az"/><use transform="matrix(0.0087890625,0,0,0.0087890625,47.63671875,0)" xlink:href="#ax"/><use transform="matrix(0.0087890625,0,0,0.0087890625,57.744140625,0)" xlink:href="#aw"/></g><path d="M645 0H180v-1490h484c435 0 692 280 692 742 0 466-257 748-711 748zM370-168h263c363 0 539-218 539-580 0-358-176-574-521-574H370v1154" id="cc"/><g id="al"><use transform="matrix(0.0087890625,0,0,0.0087890625,0,0)" xlink:href="#aI"/><use transform="matrix(0.0087890625,0,0,0.0087890625,9.5009765625,0)" xlink:href="#az"/><use transform="matrix(0.0087890625,0,0,0.0087890625,19.9951171875,0)" xlink:href="#aC"/><use transform="matrix(0.0087890625,0,0,0.0087890625,25.8837890625,0)" xlink:href="#cc"/><use transform="matrix(0.0087890625,0,0,0.0087890625,38.8740234375,0)" xlink:href="#aE"/><use transform="matrix(0.0087890625,0,0,0.0087890625,43.2333984375,0)" xlink:href="#aI"/><use transform="matrix(0.0087890625,0,0,0.0087890625,52.734375,0)" xlink:href="#aK"/><use transform="matrix(0.0087890625,0,0,0.0087890625,63.755859375,0)" xlink:href="#aL"/><use transform="matrix(0.0087890625,0,0,0.0087890625,68.115234375,0)" xlink:href="#ax"/><use transform="matrix(0.0087890625,0,0,0.0087890625,77.958984375,0)" xlink:href="#ca"/><use transform="matrix(0.0087890625,0,0,0.0087890625,88.0751953125,0)" xlink:href="#bT"/><use transform="matrix(0.0087890625,0,0,0.0087890625,99.580078125,0)" xlink:href="#ax"/><use transform="matrix(0.0087890625,0,0,0.0087890625,109.6875,0)" xlink:href="#aL"/><use transform="matrix(0.0087890625,0,0,0.0087890625,114.046875,0)" xlink:href="#bY"/><use transform="matrix(0.0087890625,0,0,0.0087890625,124.6904296875,0)" xlink:href="#az"/><use transform="matrix(0.0087890625,0,0,0.0087890625,135.1845703125,0)" xlink:href="#aM"/><use transform="matrix(0.0087890625,0,0,0.0087890625,141.5478515625,0)" xlink:href="#aR"/><use transform="matrix(0.0087890625,0,0,0.0087890625,152.5693359375,0)" xlink:href="#aE"/><use transform="matrix(0.0087890625,0,0,0.0087890625,156.9287109375,0)" xlink:href="#aI"/><use transform="matrix(0.0087890625,0,0,0.0087890625,166.4296875,0)" xlink:href="#aK"/><use transform="matrix(0.0087890625,0,0,0.0087890625,177.451171875,0)" xlink:href="#aL"/><use transform="matrix(0.0087890625,0,0,0.0087890625,181.810546875,0)" xlink:href="#ax"/><use transform="matrix(0.0087890625,0,0,0.0087890625,191.654296875,0)" xlink:href="#ca"/><use transform="matrix(0.0087890625,0,0,0.0087890625,201.7705078125,0)" xlink:href="#bT"/><use transform="matrix(0.0087890625,0,0,0.0087890625,213.275390625,0)" xlink:href="#ax"/><use transform="matrix(0.0087890625,0,0,0.0087890625,223.3828125,0)" xlink:href="#aL"/><use transform="matrix(0.0087890625,0,0,0.0087890625,227.7421875,0)" xlink:href="#bY"/><use transform="matrix(0.0087890625,0,0,0.0087890625,238.3857421875,0)" xlink:href="#az"/><use transform="matrix(0.0087890625,0,0,0.0087890625,248.8798828125,0)" xlink:href="#aA"/></g><g id="am"><use transform="matrix(0.0087890625,0,0,0.0087890625,0,0)" xlink:href="#aB"/><use transform="matrix(0.0087890625,0,0,0.0087890625,11.548828125,0)" xlink:href="#aC"/><use transform="matrix(0.0087890625,0,0,0.0087890625,17.4375,0)" xlink:href="#aD"/><use transform="matrix(0.0087890625,0,0,0.0087890625,24.4951171875,0)" xlink:href="#aE"/><use transform="matrix(0.0087890625,0,0,0.0087890625,28.8544921875,0)" xlink:href="#aw"/><use transform="matrix(0.0087890625,0,0,0.0087890625,39.4892578125,0)" xlink:href="#aF"/><use transform="matrix(0.0087890625,0,0,0.0087890625,50.5283203125,0)" xlink:href="#aP"/><use transform="matrix(0.0087890625,0,0,0.0087890625,57.09375,0)" xlink:href="#aA"/></g><g id="an"><use transform="matrix(0.0087890625,0,0,0.0087890625,0,0)" xlink:href="#aF"/><use transform="matrix(0.0087890625,0,0,0.0087890625,11.0390625,0)" xlink:href="#az"/><use transform="matrix(0.0087890625,0,0,0.0087890625,21.533203125,0)" xlink:href="#aC"/><use transform="matrix(0.0087890625,0,0,0.0087890625,27.421875,0)" xlink:href="#cc"/><use transform="matrix(0.0087890625,0,0,0.0087890625,40.412109375,0)" xlink:href="#aE"/><use transform="matrix(0.0087890625,0,0,0.0087890625,44.771484375,0)" xlink:href="#aI"/><use transform="matrix(0.0087890625,0,0,0.0087890625,54.2724609375,0)" xlink:href="#aK"/><use transform="matrix(0.0087890625,0,0,0.0087890625,65.2939453125,0)" xlink:href="#aL"/><use transform="matrix(0.0087890625,0,0,0.0087890625,69.6533203125,0)" xlink:href="#ax"/><use transform="matrix(0.0087890625,0,0,0.0087890625,79.4970703125,0)" xlink:href="#ca"/><use transform="matrix(0.0087890625,0,0,0.0087890625,89.61328125,0)" xlink:href="#bT"/><use transform="matrix(0.0087890625,0,0,0.0087890625,101.1181640625,0)" xlink:href="#ax"/><use transform="matrix(0.0087890625,0,0,0.0087890625,111.2255859375,0)" xlink:href="#aL"/><use transform="matrix(0.0087890625,0,0,0.0087890625,115.5849609375,0)" xlink:href="#bY"/><use transform="matrix(0.0087890625,0,0,0.0087890625,126.228515625,0)" xlink:href="#az"/><use transform="matrix(0.0087890625,0,0,0.0087890625,136.72265625,0)" xlink:href="#aM"/><use transform="matrix(0.0087890625,0,0,0.0087890625,143.2880859375,0)" xlink:href="#aP"/><use transform="matrix(0.0087890625,0,0,0.0087890625,149.853515625,0)" xlink:href="#aA"/></g><g id="ao"><use transform="matrix(0.0087890625,0,0,0.0087890625,0,0)" xlink:href="#aB"/><use transform="matrix(0.0087890625,0,0,0.0087890625,11.548828125,0)" xlink:href="#aC"/><use transform="matrix(0.0087890625,0,0,0.0087890625,17.4375,0)" xlink:href="#aD"/><use transform="matrix(0.0087890625,0,0,0.0087890625,24.4951171875,0)" xlink:href="#aE"/><use transform="matrix(0.0087890625,0,0,0.0087890625,28.8544921875,0)" xlink:href="#aw"/><use transform="matrix(0.0087890625,0,0,0.0087890625,39.4892578125,0)" xlink:href="#aF"/></g></defs></g></svg>